{% load i18n %}
<svg id="digimiam-svg" class="animable" xmlns="http://www.w3.org/2000/svg" viewBox="0 0 186.5 271"><path fill="#F8F9FA" d="M163.7 245.4c0-1.3 0-2.7-.1-4 0-1.2-.1-4.6-.1-11.4 0-5.7 0-72.5.1-163.9 0-14 .1-27.5 0-40.9 0-5.9-1.4-7.2-7.6-7.2-8.2-.1-16.3-.1-24.5 0-11.5.3-10.4-2.2-10.7 11.1 0 2.9 1.1 4.1 4.1 4.1 5.7-.1 11.5 0 17.2 0 6.6 0 6.7.1 6.7 6.7v26.3c-.1 94.4-.2 162.7 0 166.7 0 .5.2 2.7-1.2 4-1.2 1.1-2.9 1.1-3.9 1-6.2.1-17.4.1-18 .1h0c-2.4 0-4.1.2-4.1 3.8 0 3.6 0 5.1.1 7.5s1.2 3.5 3.7 3.5 6.1.1 8.7 0c7.4 0 14.9.1 22.3 0 3.2-.1 4.9-.3 5.9-1.3 2-1.9 1.3-2.9 1.4-6.1z"/><circle fill="#F38D40" cx="101.9" cy="134.3" r="9.4"/><path fill="#F38D40" d="M120 192c-10-2.9-20.1-5.9-30.1-8.8-7.4-5.3-7.5-15.7-6.6-25.7 1.4-15.8 10.5-8.1 18.1-11.6 5.6-2.6 6.1-2.7 9.1-3.8 5-1.8 10.3-.1 14.5 4 2.7 3.8 2 3 4.4 8.4 2.5 5.9 12.4 4.8 12.8 10.2.3 3.8-1.8 6.4-4.8 11.2-2.7 4-6.6 9-17.4 16.1z"/><path fill="#F38D40" d="M90.4 187.1c-2.6 1.2-3.4 4.2-3.1 6.8.4 3.5 3.6 5.4 10.6 7.6 8.4 2.6 13.6 3.7 16.2 2.7 3.2-1.2 4.9-6 3.8-8.8-.9-2.4-3.5-2.3-11.6-5-10.1-3.3-12.6-4.8-15.9-3.3z"/><circle fill="#F38D40" cx="139.2" cy="146.6" r="9.4"/><path class="digimiam-jaw" fill="#F38D40" d="M132.9 127.7c-4.5 3.7-4.7 4.3-13.2 1.8s-8.8-2.1-10.4-8.6c-2.8-11.5 4.6-3.6 13.1-1.1s19.1.8 10.5 7.9z"/><g class="digimiam-head"><path fill="#F38D40" d="M131.9 86.4c-9.3-2.7-16.1 3.2-21.4 15.3-4.8 10.9 6.8 14.3 12.2 15.9 6.4 1.9 16.1 4.1 18.8-5.2 3.7-12.7-.3-23.3-9.6-26zm-8.3 28.8a8.7 8.7 0 1 1 4.9-16.7 8.7 8.7 0 1 1-4.9 16.7z"/><path fill="#CB4299" d="M127.8 100.8c-3.3-1-6.8.9-7.8 4.3-1 3.3.9 6.8 4.3 7.8 3.3 1 6.8-.9 7.8-4.3.9-3.3-1-6.8-4.3-7.8zm.3 8.9c-.3.9-1.2 1.4-2.1 1.1-.9-.3-1.4-1.2-1.1-2.1 0-.2.1-.3.2-.4.1.1.2.1.4.1.9.3 1.8 0 2-.6.5.4.8 1.2.6 1.9z"/><path fill="#F8F9FA" d="M125.4 108.4c-.1 0-.2-.1-.4-.1-.1.1-.2.3-.2.4-.3.9.3 1.8 1.1 2.1.9.3 1.8-.3 2.1-1.1.2-.7-.1-1.5-.7-1.9-.1.6-1 .9-1.9.6z"/><path fill="#F8F9FA" d="M141.7 98.2l-24-5.9c-.8-.2-1.3-1-1.1-1.8l1.5-6.2c.2-.8 1-1.3 1.8-1.1l24 5.9c.8.2 1.3 1 1.1 1.8l-1.5 6.2c-.1.8-1 1.3-1.8 1.1z"/><path fill="#E6E7E8" d="M153.9 54.6c-.8-.2-1.7-.3-2.5-.3a10.46 10.46 0 0 0-18.9-4.1c-.8-.5-1.7-.9-2.7-1.1-5.3-1.4-10.7 1.6-12.4 6.6 11.7-6 36.7 1.7 41.9 15.7 1-1.2 1.7-2.6 2.1-4.1 1.5-5.6-1.9-11.3-7.5-12.7z"/><path fill="#F8F9FA" d="M160.4 69.3a10.41 10.41 0 0 0-10-13 10.46 10.46 0 0 0-18.9-4.1c-.8-.5-1.7-.9-2.7-1.1-5.6-1.4-11.3 1.9-12.7 7.5-1.3 5.1 1.4 10.4 6.2 12.3l-2.8 10.7 25.9 6.7 2.9-11.3c5.5 1 10.8-2.3 12.1-7.7z"/></g><path class="digimiam-door" fill="#F8F9FA" d="M112.9 135.4V6c0-5.7-.6-6.2-6.2-5.9-1.1.1-2.3.2-3.4.4-9.5 1.8-19.1 3.7-28.6 5.2-12 1.9-23.9 4-35.9 5.8-8.7 1.3-17.3 3.1-26 4.6C-.2 18.3.2 17 .2 29.6c-.3 71.2-.2 142.6-.2 214 0 1.4 0 2.9.1 4.3.1 2.9 1.3 4.8 4.5 5.3 2.8.4 5.6 1.2 8.4 1.7 21.1 3.7 42.3 7.1 63.4 11 9.4 1.7 19 2.4 28.3 4.8 5.7 1.5 8.3-.8 8.3-6.7 0-42.9 0-85.8-.1-128.6.1 0 0 0 0 0zM89.1 144c-4.5-4.6-4.2-15 .9-18.8 2.4-1.8 5.1-1.3 7.4.8 2.7 2.5 2.4 5.9 3.1 8.4-.4 3.6-.6 6.6-2.6 9.1-2.5 3.2-6 3.4-8.8.5z"/><path class="ri-door digimiam-door" fill="#3C3E3E" d="M97.3 126c-2.3-2.1-5-2.6-7.4-.8-5.1 3.9-5.4 14.2-.9 18.8 2.8 2.9 6.3 2.6 8.8-.5 1.9-2.5 2.2-5.5 2.6-9.1-.7-2.5-.4-5.9-3.1-8.4z"/><path class="digimiam-arm" fill="#F38D40" d="M175.8 113.7c3.1.8 5.6 0 5.6 0s-.6 10.9-2.2 14.9c-1.6 3.9-5.3 7.2-9.4 11.1-4.2 4-19.3 9.6-19.3 9.6s.7-3-.1-5.9c-1-3.5-2.6-4.7-2.6-4.7s10.5-1.4 15-5.3c2.6-2.3 6.5-6.7 7.9-10.3 1.7-4 1.2-12.3 1.2-12.3s.5 2.1 3.9 2.9z"/><path class="digimiam-arm" fill="#F38D40" d="M180.6 108.4c-1.8.9-3.3 1.1-5.1-1.3-1-1.3.7-5.4.7-5.4l-2.7-1.3s-2.5 3.1-1.5 6.9c1.1 4 5.2 5.6 9.1 4.3s5.4-6.5 5.4-6.5l-2.8-1.2s-1.2 3.6-3.1 4.5z"/></svg>
