<svg xmlns="http://www.w3.org/2000/svg" viewBox="0 0 178 271"><path fill="#fefbf0" d="M0 251V21c2-1 3-3 5-3l37-6 60-11c2 0 4 1 4-1h4c3 2 3 6 3 9v92c0 1-1 3 1 3-2 2-1 4-1 6v10c-2 1-1 2-1 3-1 2 1 4 1 6v13c-2 1-2 3 0 4v10c-2 0-1 1-1 2v1l1 8v12l-1 4v12c-1 1 1 2 1 3v61c0 4 0 8-3 12h-6c-1-2-2-1-3-1l-24-4-48-9c-10-1-20-1-29-6zm100-116c0-2 0-5-2-7-2-4-6-4-9-1-4 3-4 10-1 15 1 3 3 4 6 4 2 0 4-2 5-4l1-7z"/><g fill="#e4854e"><path d="M162 55c2 2 4 5 5 9l1 1c6 1 9 5 10 10v3l-4 7c-2 2-5 4-9 3-2 0-3 0-3 2l-13 30v3c4 9 3 17 0 25-1 3-1 3 1 4 4 2 9 3 12 8v7c-2 3-5 5-8 4-3 0-4 1-5 4l-1 2-16 34c-1 2 0 2 1 3 4 6 3 14-4 17-1 1-3 1-4-1l2-4c3-1 4-3 4-5-1-3-2-5-4-5-2-1-5-1-6 1-2 1-3 3-2 5 0 2 0 3-2 4s-2-1-3-3c0-8 3-12 12-13l2-2 17-38c2-3-1-3-2-4-2-1-3 0-3 2l-12 26c-2 3-5 5-9 5-2-1-5-1-7-4v-3h2l4 2c3 1 4-1 5-4 2-2-1-2-2-2l-9-5 1-4 11 5 3-1a2201 2201 0 0 1 9-26l-23-11v-5l21 10c7 3 7 3 10-4 4-8 4-16 0-24-1-1-1-2-3-2l-21-10c-3-1-5-2-7-1 0-2-1-4 1-6a4131 4131 0 0 1 13-33c-5-4-6-11-2-16s10-6 16-3h3l5-2h2c4 1 8 2 11 5zm-12 103c-2-1-3-3-5-1-3 2-2 5 1 6l2 1 6 3 4-2c0-2 0-3-2-4l-6-3zm13-96c-2-6-8-9-14-8l-5 2c-2 2-3 2-4 0-4-4-10-3-13 1s-2 10 2 13c2 1 2 2 1 4l-9 20 1 3c3 2 5 1 5-2l3-5c0-1 1-2 2-1v2l-3 7c-1 3 1 2 2 3s3 2 4 0l4-10 2-2v3l-3 9c-1 2-1 2 1 3 2 2 4 1 4-1l3-6c0-1 1-2 3-1 1 2-1 3-2 5l-2 4 1 2c1 1 3 3 4 1l10-21c0-1 0-2 2-3l2 1c5 1 9-2 10-6 2-5-1-10-5-11-4 0-6-2-6-6zm-20 57c4 0 4-3 5-6v-2l-27-11h-2c-3 5-3 7 3 10l17 7 4 2z"/><path d="M113 119c6-1 10 1 11 7l1 2 11 5c2 1 3 2 2 4s-3 2-4 1a506 506 0 0 1-14-5c-2 2-5 2-7 1v-5l2 1c2 0 4-1 4-3s-1-3-3-4l-3 1v-4-1zM113 155c1-2 2 0 3 0v3c-1 1-2 2-4 1v-1l1-2v-1z"/></g><path fill="#fefcfb" d="M113 142v5c-2-2-2-3 0-5z"/><path fill="#fefcfc" d="M113 156l-1 2c-1-1-1-1 1-2z"/><path fill="#fefbf0" d="M148 178l1-3c1-3 2-4 5-4s6-1 8-4l1 2v79c0 3-2 5-5 5h-33c-2 0-3-1-3-2l-1-10c1-2 2-3 4-3h18c4 0 6-1 6-6l-1-50c0-1 2-3 0-4z"/><path fill="#fefaef" d="M162 160c-3-5-8-5-12-8-2-1-2-1-1-3 3-9 3-17 0-26l-1-3 14-29 1 2v65l-1 2z"/><path fill="#fefbf0" d="M162 55c-3-3-7-4-11-4h-1-1V40c0-5-1-6-7-6h-17c-3 0-5-2-4-5v-6c0-3 1-4 4-4h32c5 0 6 2 6 7v26l-1 3z"/><path fill="#fefaef" d="M149 96V54c6-1 12 2 14 8v19l-1 3-2 3-9 21c-2 0-2-1-2-3-1-1 1-3-2-4 1-2 3-3 2-5z"/><path fill="#fdf8ee" d="M150 158l6 3c1 0 2 2 1 3 0 2-1 3-3 2l-6-2v-3c0-1 0-2 2-3z"/><path fill="#fdfaf7" d="M148 101c2 1 0 3 1 4 0 2 0 3 2 3-2 2-3 0-5-1v-2l2-4z"/><path fill="#fefefe" d="M150 51h1-1z"/><path fill="#e4854e" d="M126 165l-6-3-1-3 3-1 6 3 1 3-3 1z"/></svg>
