<svg version="1.1" viewBox="0 0 178.21 271.3" xmlns="http://www.w3.org/2000/svg">
 <g transform="translate(-179.3,-8.9)">
  <path d="m179.5 259.5v-229.5c1.6-0.9 2.7-2.6 4.7-3 12.2-2.1 24.4-4.5 36.7-6.5 20.3-3.3 40.7-6.3 60.9-10.5 1.2-0.3 3 0.8 3.7-1.1h4c2.9 2.4 2.5 5.6 2.5 8.9v92.6c0 1-0.7 2.4 0.9 3-1.5 1.8-1.1 3.9-0.9 6 0.2 2.8-0.6 5.6 0.6 8.3-0.2 0.6-0.4 1.2-0.6 1.7-1.3 0.3-0.9 1.4-1 2.2-0.3 2.2 1.6 4.1 1 6.4 0 1.6 0 3.2 0.1 4.8v7.3 0.7c-1.6 1.5-1.6 3-0.1 4.5 0.4 2.7-0.7 5.4 0.3 8.1-0.1 0.5-0.2 0.9-0.3 1.4-1.4 0.5-1.2 1.2-0.3 2.1v0.6c0.1 2.7 0.2 5.5 0.3 8.2 0.2 4-0.6 8 0.5 11.9-1 1.4-0.6 3.1-1 4.6 0.4 2.8 0.9 5.6 0 8.4 0 1.1 0.1 2.1 0.1 3.2-1.5 1.4 0.4 2.4 0.4 3.6-0.1 6.4 0.1 12.8-0.1 19.2-0.1 2.1-0.8 4.2 0.1 6.3v34.7c0 4.2 0.7 8.7-2.5 12.3h-6.5c-0.5-1.6-2-1.3-3.1-1.4-8-1.4-16-2.5-24-3.9-15.8-2.7-31.7-5.2-47.4-8.3-9.8-1.8-20.1-1.6-29-6.8zm100.2-115.2c-0.5-2.8-0.8-5.4-2.1-7.6-2.1-3.6-6.3-4.2-9.2-1.2-3.7 3.7-4.4 10.6-1.5 15.7 1.3 2.3 3.1 4.1 6.1 3.9 2.8-0.2 4.3-2.1 5.1-4.5 0.8-2.1 1.1-4.4 1.6-6.3z" fill="#fefbf0"/>
  <g fill="#e4854e">
   <path d="m341.3 63.6c2.3 2.6 4.3 5.3 4.8 8.8 0.1 0.6 0.2 1.2 1 1.3 5.9 1 8.8 5 10.4 10.3v3c-1.3 2.3-1.8 4.9-3.8 6.8-2.5 2.4-5.6 3.7-9 3.3-2.2-0.3-3.3 0.2-3.6 2.3-4.4 10-8.8 19.9-13.3 29.8-0.5 1.1 0 1.9 0.4 2.8 3.6 8.5 3.5 17-0.3 25.3-1 2.2-0.8 2.9 1.4 4 4.2 2.1 9.4 2.9 11.9 7.7 0.7 2.3 1.1 4.6-0.1 6.9-1.7 3-4.4 5-7.7 4.3-3.4-0.7-4.2 1-5 3.3-0.4 1-0.8 2-1.3 2.9-5.3 11.2-10.5 22.5-15.8 33.7-0.7 1.5 0.2 2.1 0.9 3 4.5 5.8 2.7 14-3.6 16.7-1.6 0.7-3.2 1-4-0.9-0.7-1.7 0.4-2.7 1.9-3.5 2.4-1.2 3.5-3.2 3.3-5.9-0.2-2.4-1.4-4.1-3.5-5-2.3-1-4.6-0.7-6.5 1-1.6 1.5-2.1 3.3-1.8 5.4 0.3 1.7 0.7 3.5-1.4 4.2-2.2 0.7-2.7-1.3-3.4-2.8-0.4-8.7 3.1-12.8 11.8-13.3 1.2-0.1 1.5-0.7 1.9-1.6 5.9-12.7 11.8-25.5 17.8-38.2 1.5-3.2-1.4-2.8-2.7-3.8-1.6-1.2-2.3-0.4-3.1 1.2-4 8.7-8 17.4-12.1 26-1.6 3.4-4.5 5.3-8.2 5-2.7-0.3-5.6-0.9-6.9-3.9 0-1.1-0.1-2.1-0.1-3.2 0.6-0.6 1.2-0.3 1.8 0 1.4 0.7 2.8 1.5 4.3 2 2.9 1 4-0.9 5-3.1 1.2-2.5-1.2-2.3-2.2-2.9-2.9-1.6-5.9-3-8.9-4.4 0.4-1.5 0-3.2 1-4.6 3.6 1.7 7.3 3.3 10.8 5.1 1.6 0.8 2.3 0.5 3-1.1 3.4-7.4 6.8-14.8 10.3-22.2 0.8-1.7 0.6-2.4-1.1-3.1-7.9-3.6-15.7-7.3-23.5-11 0-1.5 0-3 0.1-4.5v-0.7c7 3.2 14.1 6.3 21.1 9.6 6.6 3.1 6.5 3.1 9.7-3.6 3.9-7.9 4.2-15.7 0.3-23.7-0.6-1.2-1.4-1.9-2.6-2.4-7.3-3.2-14.6-6.4-21.9-9.7-2.2-1-4.3-1.8-6.6-1-0.2-2.1-0.6-4.2 0.9-6 4.5-10.3 9-20.5 13.6-30.8 0.5-1.2 0.2-1.7-0.7-2.4-5.2-4.4-5.9-11.2-1.8-16.5 3.7-4.8 10.5-5.8 15.9-2.2 1 0.7 1.7 1 2.8 0.1 1.5-1.2 3.5-1.5 5.3-2.1 0.5-0.1 0.9-0.1 1.4-0.2h0.5c4.2 0.4 8 1.6 11.2 4.5zm-12.3 103.4c-1.5-0.7-3.1-2.7-4.7-1.5-2.8 2.3-2.2 5 1 6.5 0.6 0.3 1.2 0.5 1.8 0.7 2.1 1 4 2.4 6.4 2.7 1.6 0.2 2.9-0.5 3.3-2 0.5-1.6 0.1-3-1.6-3.7-2.1-0.9-4.2-1.8-6.2-2.7zm13.6-96.1c-2.7-6.4-8.2-9.4-14.6-7.9-1.9 0.1-3.6 0.8-4.9 2.2-1.4 1.5-2.3 1.3-3.7-0.1-3.9-3.8-9.7-3.5-13 0.5-3.4 4.1-2.5 10.1 2.2 13 1.9 1.2 2 2.2 1.2 4-3.1 6.8-6 13.7-9.1 20.5-0.7 1.5-0.4 2 1 2.8 2.8 1.6 4.3 1.1 5.1-2 0.5-1.7 1.4-3.4 2.1-5.1 0.4-1 1-1.9 2.2-1.4s1 1.6 0.5 2.6c-1 2.4-2 4.7-3.1 7.1-1.1 2.5 1.3 2.2 2.3 2.8 1 0.5 2.2 1.8 3.1-0.5 1.2-3.3 2.7-6.4 4.2-9.6 0.4-0.9 0.8-2.3 2.3-1.5 1.4 0.7 0.8 1.8 0.4 2.8-1.3 3-2.5 6-3.9 8.9-0.8 1.6-0.5 2.3 1.1 3.2 2.6 1.5 3.9 1.1 4.8-1.8 0.5-1.8 1.5-3.5 2.2-5.3 0.6-1.3 1.4-2.1 2.9-1.5 1.2 2.1-1 3.5-1.1 5.3-0.7 1.4-1.3 2.8-2 4.2-0.4 0.9-0.8 1.9 0.5 2.1 1.5 0.2 2.7 2.7 4.5 0.7 3.1-7 6.2-13.9 9.2-20.9 0.5-1 0.8-2.2 1.9-2.9 0.8 0.2 1.6 0.5 2.4 0.6 4.8 1 9.2-1.6 10.5-6.2 1.2-4.3-1-9.5-5.1-10.3-4.1-0.5-6.2-2-6.1-6.3zm-20.1 57.1c4-0.2 3.9-3.5 5.2-5.7 0.6-1.1 0.3-1.6-0.8-2.1-8.9-3.9-17.8-7.8-26.7-11.8-0.8-0.3-1.3-0.7-2 0.4-3.2 5.3-2.6 7.5 3.2 9.9 5.6 2.4 11.3 4.5 16.6 7.4 1.5 1 3.2 1.4 4.5 1.9z"/>
   <path d="m292.6 127.8c6-0.8 9.5 1.6 10.3 7.5 0.2 1.3 0.9 1.7 1.8 2.1 3.5 1.6 7.1 3.3 10.6 4.9 1.7 0.8 3 1.9 2.1 3.8s-2.7 1.6-4.3 0.8c-3.5-1.6-7.1-3.3-10.6-5-1.1-0.6-2-0.6-3.1 0.2-2.2 1.5-4.7 2.1-7.2 0.8 0-1.6 0-3.2-0.1-4.9 0.9-0.5 1.4 0.5 2.3 0.5 2 0 3.5-0.7 3.7-2.8 0.2-1.9-0.7-3.1-2.7-3.5-1.3-0.2-2.1 0.6-3.3 0.9v-3.8c0.1-0.4 0.3-1 0.5-1.5z"/>
   <path d="m292.3 163.6c1.2-1.3 1.9-0.1 2.6 0.6 0.8 0.8 1.1 2 0.4 3-0.9 1.2-2.2 1.3-3.6 0.5v-0.6l0.3-2.1c0.1-0.5 0.2-0.9 0.3-1.4z"/>
  </g>
  <path d="m292 151c0 1.5 0 3-0.1 4.5-1.5-1.5-1.5-3 0.1-4.5z" fill="#fefcfb"/>
  <path d="m292 165-0.3 2.1c-0.9-0.9-1.1-1.6 0.3-2.1z" fill="#fefcfc"/>
  <path d="m327 186.5c0.4-1 0.9-2 1.3-2.9 0.9-2.3 1.7-4 5-3.3s6-1.4 7.7-4.3c1.4 0.1 1.4 1.1 1.4 2.1v79.2c0 3.1-2.4 4.2-4.9 4.2-11.2 0.1-22.3 0-33.5 0.1-1.6 0-3-0.8-2.9-2.1 0.1-3.3-1.2-6.5-0.3-9.9 0.5-1.9 1.5-2.5 3.3-2.5 6 0.1 12 0 18 0 4.2 0 6-1.6 5.8-5.9-0.7-16.6-0.4-33.3-0.6-49.9 0.1-1.6 1.9-3.5-0.3-4.8z" fill="#fefbf0"/>
  <path d="m341.2 169.1c-2.5-4.8-7.7-5.6-11.9-7.7-2.2-1.1-2.4-1.8-1.4-4 3.9-8.3 3.9-16.8 0.3-25.3-0.4-0.9-0.9-1.7-0.4-2.8 4.5-9.9 8.9-19.9 13.3-29.8 1.4 0.1 1.4 1.1 1.4 2.1v65.3c0 1 0.1 2.1-1.3 2.2z" fill="#fefaef"/>
  <path d="m341.3 63.6c-3.2-2.9-7-4.1-11.3-4.1h-0.5c-0.5 0.1-0.9 0.1-1.4 0.2 0-3.6 0-7.2-0.1-10.7-0.1-5.5-1.1-6.5-6.6-6.5-5.7 0-11.5-0.1-17.2 0-3.2 0.1-4.4-1.3-4.2-4.3 0.1-2.2 0-4.3 0.1-6.5 0.1-2.5 1.1-4.2 4-4.2 10.7 0 21.3-0.1 32 0.1 4.8 0.1 6.5 2 6.5 6.8v26.2c-0.1 1.1 0.2 2.4-1.3 3z" fill="#fefbf0"/>
  <path d="m328 104.7v-41.7c6.4-1.4 11.9 1.6 14.6 7.9-1.1 1-0.8 2.4-0.6 3.5 0.8 5 0.2 10.1 0.5 15.1 0.1 1.6-0.3 2.8-1.5 3.8-1.1 0.7-1.4 1.8-1.9 2.9-3.1 6.9-6.2 13.9-9.2 20.9-2 0.1-1.7-1.4-2-2.7-0.2-1.5 1.1-3.4-1.1-4.3 0.2-2 2.3-3.4 1.2-5.4z" fill="#fefaef"/>
  <path d="m329 167c2 0.9 4.1 1.8 6.1 2.7 1.7 0.7 2.1 2.1 1.6 3.7-0.5 1.5-1.7 2.2-3.3 2-2.4-0.3-4.3-1.7-6.4-2.7 1.2-0.6 0.4-1.5 0.4-2.3 0.1-1.4-0.1-2.8 1.6-3.4z" fill="#fdf8ee"/>
  <path d="m326.9 110c2.2 1 0.8 2.9 1.1 4.3 0.2 1.3 0 2.8 2 2.7-1.8 2-3-0.5-4.5-0.7-1.3-0.2-0.9-1.2-0.5-2.1 0.6-1.4 1.2-2.8 1.9-4.2z" fill="#fdfaf7"/>
  <path d="m329.5 59.5h0.5-0.5z" fill="#fefefe"/>
  <path d="m305.7 174.2c-2.2-0.6-4.4-1.4-6.3-3-0.9-0.8-1.2-1.9-0.6-2.9 0.6-1.1 1.8-1.7 3-1.2 1.9 0.7 3.7 1.5 5.4 2.5 1.1 0.6 1.5 1.8 1.1 3-0.4 1.1-1.4 1.6-2.6 1.6z" fill="#e4854e"/>
 </g>
</svg>
