<svg version="1.1" viewBox="-164 0 328 271" xmlns="http://www.w3.org/2000/svg"><path d="m113 135v129c0 5.9-2.5 8.2-8.3 6.7-9.3-2.4-19-3.1-28-4.8-21-3.8-42-7.3-63-11-2.8-0.49-5.6-1.3-8.4-1.7-3.2-0.45-4.4-2.4-4.5-5.3-0.07-1.4-0.09-2.9-0.09-4.3 0-71-0.07-143 0.08-214 0.03-13-0.42-11 13-13 8.7-1.5 17-3.3 26-4.6 12-1.8 24-4 36-5.8 9.6-1.5 19-3.3 29-5.2 1.1-0.22 2.3-0.33 3.4-0.39 5.6-0.3 6.2 0.2 6.2 5.9 0.03 43 0.02 86 0.02 129h0.07zm-13-1c-0.66-2.5-0.41-5.9-3.1-8.4-2.3-2.1-5-2.6-7.4-0.78-5.1 3.9-5.4 14-0.86 19 2.8 2.9 6.3 2.6 8.8-0.54 1.9-2.5 2.2-5.5 2.6-9.1z"/></svg>
