<svg viewBox="0 0 327.42 271.21" xmlns="http://www.w3.org/2000/svg"><path d="m276.62 135.47v128.6c0 5.9-2.5 8.2-8.3 6.7-9.3-2.4-18.9-3.1-28.3-4.8-21.1-3.8-42.3-7.3-63.4-11-2.8-0.5-5.6-1.3-8.4-1.7-3.2-0.4-4.4-2.3-4.5-5.3-0.1-1.4-0.1-2.9-0.1-4.3 0-71.4-0.1-142.8 0.1-214.1 0-12.6-0.4-11.2 12.6-13.5 8.7-1.5 17.3-3.3 26-4.6 12-1.9 24-3.9 35.9-5.8 9.6-1.5 19.1-3.3 28.6-5.2 1.1-0.2 2.3-0.3 3.4-0.4 5.6-0.3 6.2 0.2 6.2 5.9 0.1 43.2 0.1 86.3 0.2 129.5-0.1 0 0 0 0 0zm-12.6-1c-0.7-2.5-0.4-5.9-3.1-8.4-2.3-2.1-5-2.6-7.4-0.8-5.1 3.9-5.4 14.2-0.9 18.8 2.8 2.9 6.3 2.6 8.8-0.5 2-2.5 2.2-5.5 2.6-9.1z" fill="#f38d40"/></svg>
