<svg viewBox="0 0 327.42 271.21" xmlns="http://www.w3.org/2000/svg"><path d="m167.62 99.467h156.97v138.7h-156.97z" fill="#3c3c3e" stroke-width=".9868"/><path d="m167.62 76.367h156.97v23.1h-156.97z" fill="#f8f9fa" stroke-width=".97893"/><path d="m167.62 32.767h156.97v43.6h-156.97z" fill="#f8f9fa" stroke-width=".97893"/><path d="m182.62 59.767h-9.5a3.7 3.7 0 1 1 0-7.4h9.5c2 0 3.7 1.6 3.7 3.7s-1.6 3.7-3.7 3.7z" fill="#4d4d4d"/><path d="m237.22 62.267h-18c-3.6 0-6.5-2.9-6.5-6.5s2.9-6.5 6.5-6.5h18c3.6 0 6.5 2.9 6.5 6.5s-2.9 6.5-6.5 6.5z" fill="#cb4299"/><path d="m323.38 90.667h-92.765a3.7904 3.8 0 1 1 0-7.6h92.765a3.7904 3.8 0 1 1 0 7.6z" fill="#4d4d4d" stroke-width=".99874"/><g fill="#f8f9fa"><path d="m319.5 124.17h-37.095c-1.5232 0-2.7776-1.4-2.7776-3.1s1.2544-3.1 2.7776-3.1h37.095c1.5232 0 2.7776 1.4 2.7776 3.1s-1.2544 3.1-2.7776 3.1z" stroke-width=".94658"/><path d="m242.81 146.07h-19.772c-1.7382 0-3.1143-2-3.1143-4.3 0-2.4 1.4485-4.3 3.1143-4.3h19.772c1.7382 0 3.1143 2 3.1143 4.3a3.0419 4.2 0 0 1-3.1143 4.3z"/><path d="m300.72 150.07h-79.8a1 1 0 0 0-1 1c0 0.5 0.4 1 1 1h79.9c0.5 0 1-0.4 1-1-0.1-0.6-0.5-1-1.1-1z"/><path d="m300.32 155.97h-79.8a1 1 0 0 0-1 1c0 0.5 0.4 1 1 1h79.9c0.5 0 1-0.4 1-1-0.1-0.5-0.5-1-1.1-1z"/><path d="m300.02 161.87h-79.9a1 1 0 0 0-1 1c0 0.5 0.4 1 1 1h79.9c0.5 0 1-0.4 1-1 0-0.5-0.5-1-1-1z"/><path d="m300.02 167.87h-79.9a1 1 0 0 0-1 1c0 0.5 0.4 1 1 1h79.9c0.5 0 1-0.4 1-1s-0.5-1-1-1z"/><path d="m300.02 173.77h-79.9a1 1 0 0 0-1 1c0 0.5 0.4 1 1 1h79.9c0.5 0 1-0.4 1-1s-0.5-1-1-1z"/><path d="m300.02 179.67h-79.9a1 1 0 0 0-1 1c0 0.5 0.4 1 1 1h79.9c0.5 0 1-0.4 1-1 0-0.5-0.5-1-1-1z"/><path d="m272.62 185.67h-52.5a1 1 0 0 0-1 1c0 0.5 0.4 1 1 1h52.5c0.5 0 1-0.4 1-1s-0.5-1-1-1z"/><path d="m300.02 197.47h-79.9a1 1 0 0 0-1 1c0 0.5 0.4 1 1 1h79.9c0.5 0 1-0.4 1-1 0-0.5-0.5-1-1-1z"/><path d="m260.12 203.37h-40a1 1 0 0 0-1 1c0 0.5 0.4 1 1 1h40c0.5 0 1-0.4 1-1 0-0.5-0.5-1-1-1z"/></g><path d="m308.22 223.77h-34c-3.2 0-5.9-2.7-5.9-5.9s2.7-5.9 5.9-5.9h34c3.2 0 5.9 2.7 5.9 5.9s-2.7 5.9-5.9 5.9z" fill="#cb4299"/><path d="m258.62 223.77h-33.2c-3.2 0-5.9-2.7-5.9-5.9s2.7-5.9 5.9-5.9h33.2c3.2 0 5.9 2.7 5.9 5.9s-2.7 5.9-5.9 5.9z" fill="#3c3c3e" stroke="#f7931e" stroke-miterlimit="10"/><g fill="#f8f9fa"><path d="m251.42 232.17h-18.6c-0.9 0-1.7-0.8-1.7-1.7s0.8-1.7 1.7-1.7h18.6c0.9 0 1.7 0.8 1.7 1.7 0 1-0.8 1.7-1.7 1.7z"/><path d="m284.32 232.17h-13.2c-0.9 0-1.7-0.8-1.7-1.7s0.8-1.7 1.7-1.7h13.2c0.9 0 1.7 0.8 1.7 1.7 0 1-0.8 1.7-1.7 1.7z"/><path d="m312.42 232.17h-9c-0.9 0-1.7-0.8-1.7-1.7s0.8-1.7 1.7-1.7h9c0.9 0 1.7 0.8 1.7 1.7 0 1-0.8 1.7-1.7 1.7z"/><path d="m213.52 200.37v-58.5c0-1.6-0.4-1.9-2-1.9h-6.5c-3.1 0.1-2.8-0.6-2.8 2.9 0 0.8 0.3 1.1 1.1 1.1h4.6c1.8 0 1.8 0 1.8 1.8v7c0 25.1-0.1 43.2 0 44.3 0 0.1 0.1 0.7-0.3 1.1-0.3 0.3-0.8 0.3-1 0.3h-4.8c-0.6 0-1.1 0.1-1.1 1v2c0 0.6 0.3 0.9 1 0.9h8.2c0.9 0 1.3-0.1 1.6-0.3 0.3-0.6 0.1-0.9 0.2-1.7z"/><circle cx="197.02" cy="170.87" r="2.5"/><path d="m200.02 171.17v-34.4c0-1.5-0.2-1.6-1.6-1.6-0.3 0-0.6 0.1-0.9 0.1-2.5 0.5-5.1 1-7.6 1.4-3.2 0.5-6.3 1.1-9.5 1.5-2.3 0.3-4.6 0.8-6.9 1.2-3.5 0.6-3.3 0.2-3.3 3.6-0.1 18.9-0.1 37.9-0.1 56.8v1.1c0 0.8 0.3 1.3 1.2 1.4 0.7 0.1 1.5 0.3 2.2 0.5 5.6 1 11.2 1.9 16.8 2.9 2.5 0.5 5 0.6 7.5 1.3 1.5 0.4 2.2-0.2 2.2-1.8zm-6.4 2.2c-1.2-1.2-1.1-4 0.2-5 0.6-0.5 1.4-0.3 2 0.2 0.7 0.7 0.6 1.6 0.8 2.2-0.1 1-0.2 1.8-0.7 2.4-0.6 1-1.5 1-2.3 0.2z"/></g><path d="m195.82 168.67c-0.6-0.6-1.3-0.7-2-0.2-1.4 1-1.4 3.8-0.2 5 0.7 0.8 1.7 0.7 2.3-0.1 0.5-0.7 0.6-1.5 0.7-2.4-0.1-0.8-0.1-1.7-0.8-2.3z" fill="#5b5b5b"/><g transform="translate(163.62 -.43306)"><path d="m141.9 61.5c-0.1 0.4-0.2 0.6-0.2 0.9-0.1 0.5 0.1 0.8 0.6 0.9h0.3c0.8 0 1.1-0.2 1.3-1l0.6-2.7c0.1-0.3 0-0.6-0.3-0.7-0.7-0.5-1.4-0.9-2.1-1.4l-0.5-0.3c-0.4-0.3-0.6-0.7-0.5-1.3l0.3-1.6 0.6-2.4c0.1-0.4 0.3-0.8 0.4-1.1 0.4-0.8 1.1-1.3 2.1-1.4 0.8-0.1 1.6-0.1 2.4 0 1.1 0.1 1.6 0.9 1.5 1.9-0.1 0.7-0.3 1.4-0.4 2.1 0 0.1-0.1 0.2-0.2 0.2h-1.9l-0.1-0.1 0.3-1.2c0-0.2 0.1-0.4 0.1-0.5 0-0.3-0.2-0.5-0.5-0.5h-0.8c-0.4 0-0.7 0.3-0.8 0.7l-0.3 1.3c-0.1 0.5-0.2 1.1-0.4 1.6-0.1 0.3 0 0.5 0.2 0.6l0.9 0.6c0.5 0.4 1.1 0.7 1.6 1 0.6 0.4 0.8 0.9 0.6 1.6l-0.9 3.9c-0.1 0.3-0.1 0.5-0.3 0.7-0.5 1.2-1.4 1.7-2.7 1.8h-1.6c-0.3 0-0.6-0.1-0.8-0.2-0.7-0.2-0.9-0.8-1-1.4 0-0.7 0.1-1.3 0.3-2 0-0.1 0.1-0.2 0.2-0.2 0.6 0.2 1.3 0.2 2 0.2zm-42.3-11h1.9v0.3l-0.3 5.3c-0.1 1.4-0.1 2.7-0.2 4.1l-0.1 1.9v0.5c0.1 0.3 0.3 0.5 0.6 0.5h1c0.4 0 0.6-0.2 0.6-0.6 0.1-0.6 0.1-1.1 0.1-1.7l0.3-5.7 0.1-2.9c0-0.4 0-0.9 0.1-1.4h1.8v1.2c0 1-0.1 2-0.2 3l-0.2 4.4c0 0.9-0.1 1.9-0.1 2.8 0 0.4-0.1 0.9-0.2 1.3-0.3 0.9-1 1.4-1.9 1.4h-2c-0.9 0-1.6-0.5-1.8-1.4-0.2-0.6-0.1-1.2-0.1-1.8 0-1 0.1-2.1 0.2-3.1 0.1-1.4 0.2-2.9 0.2-4.3l0.1-3.1c0-0.4 0.1-0.5 0.1-0.7zm37.6 5.5h2.7v0.2l-0.3 1.5c0 0.2-0.1 0.2-0.3 0.2h-2.5l-1.2 5.3h3.1v0.3c-0.1 0.5-0.2 1-0.3 1.4 0 0.1-0.1 0.2-0.2 0.2h-5.1c0-0.1 0-0.3 0.1-0.4 1.1-5 2.3-10.1 3.5-15.1v-0.2c0-0.2 0.1-0.3 0.3-0.3h5v0.3c-0.1 0.5-0.2 1-0.3 1.4 0 0.2-0.1 0.3-0.4 0.3h-2.4c-0.4 0-0.4 0-0.5 0.4l-0.9 4.1c-0.3 0.2-0.3 0.3-0.3 0.4zm-24.8-1.7h-1.8v-1.5c0-0.4-0.2-0.6-0.7-0.7-0.9-0.1-1.2 0.2-1.2 1.1 0 0.7 0 1.4-0.1 2.1 0 0.3 0.1 0.6 0.4 0.7 0.6 0.3 1.1 0.6 1.7 1 0.3 0.2 0.6 0.4 1 0.6 0.4 0.3 0.6 0.6 0.6 1.1-0.1 1.3-0.1 2.6-0.2 3.9s-0.9 2-2.2 2h-1.3c-1.2 0-1.9-0.6-2-1.8v-1.3c0-0.1 0-0.2 0.2-0.2h1.6v0.7c0 0.6 0.2 0.8 0.8 0.8 0.8 0 1-0.1 1.1-1 0-0.7 0.1-1.5 0.1-2.2 0-0.4-0.1-0.6-0.4-0.8-0.7-0.4-1.3-0.8-2-1.2-0.8-0.4-1.2-1.1-1.1-2 0.1-1.1 0.1-2.1 0.2-3.2 0.1-1.3 0.9-2.1 2.3-2.1h1.8c0.9 0.1 1.4 0.7 1.5 1.6-0.1 0.9-0.2 1.6-0.3 2.4zm0.9-3.8h5.5c0 0.6 0 1.1-0.1 1.7h-1.2c-0.7 0-0.6-0.1-0.6 0.6-0.1 1.4-0.2 2.9-0.2 4.3l-0.1 2.8-0.3 4.6v0.1h-1.9c0.2-4.1 0.4-8.3 0.7-12.4h-1.7v-1.7zm-19.8 14.2v-1.6c0-0.1 0.1-0.2 0.2-0.2h0.9c0.6 0 0.9-0.3 0.9-0.8 0-0.6 0.1-1.2 0.1-1.8l0.3-5.4c0.1-1.4 0.1-2.7 0.2-4.1v-0.2h1.9v0.8c0 1-0.1 1.9-0.2 2.9l-0.3 5.7c0 0.8-0.1 1.7-0.1 2.5 0 0.2 0 0.4-0.1 0.6-0.2 1.1-1 1.6-2.1 1.7-0.5-0.1-1.1-0.1-1.7-0.1z" fill="#3c3c3e"/><linearGradient id="a" x1="119.21" x2="135.34" y1="225.48" y2="251.27" gradientTransform="matrix(1,0,0,-1,0,294.29)" gradientUnits="userSpaceOnUse"><stop stop-color="#f39740" offset="0"/><stop stop-color="#c73ba1" offset="1"/></linearGradient><path d="m132.8 41.8v-0.5c0-0.3-0.1-0.4-0.5-0.4-0.5 0-0.9 0.1-1.4 0.2-3.4 0.6-6.8 1.2-10.2 1.7-0.9 0.1-1 0.2-1 1.1v25.5c0 0.4 0.2 0.5 0.5 0.6 2 0.4 4 0.7 6 1.1 1.8 0.3 3.7 0.6 5.6 1 0.5 0.1 0.8-0.1 0.9-0.6v-15.1c0.1-4.8 0.1-9.7 0.1-14.6zm-1.8 15.7c-0.3 0.3-0.7 0.4-1 0a1.6 1.6 0 0 1-0.1-2c0.3-0.4 0.8-0.4 1.1 0 0.4 0.6 0.4 1.5 0 2z" fill="url(#a)"/><linearGradient id="b" x1="121.13" x2="137.25" y1="224.28" y2="250.07" gradientTransform="matrix(1,0,0,-1,0,294.29)" gradientUnits="userSpaceOnUse"><stop stop-color="#f39740" offset="0"/><stop stop-color="#c73ba1" offset="1"/></linearGradient><path d="m134.3 44.8h2.1c0.5 0 0.5 0.1 0.5 0.5v3.4h1.7v-5c0-0.5-0.1-0.7-0.6-0.7h-3.9c-0.2 0-0.3 0.1-0.4 0.4v0.8c0 0.4 0.1 0.6 0.6 0.6z" fill="url(#b)"/><linearGradient id="c" x1="131.58" x2="147.71" y1="217.74" y2="243.54" gradientTransform="matrix(1,0,0,-1,0,294.29)" gradientUnits="userSpaceOnUse"><stop stop-color="#f39740" offset="0"/><stop stop-color="#c73ba1" offset="1"/></linearGradient><path d="m138.6 66.1v-0.4h-1.7v1.9c0 0.7-0.1 0.7-0.7 0.7h-1.9c-0.3 0-0.4 0.1-0.4 0.4v0.8c0 0.4 0.1 0.5 0.5 0.5h3.6c0.5 0 0.7-0.2 0.7-0.7-0.1-1-0.1-2.1-0.1-3.2z" fill="url(#c)"/><linearGradient id="d" x1="128.94" x2="145.07" y1="219.39" y2="245.19" gradientTransform="matrix(1,0,0,-1,0,294.29)" gradientUnits="userSpaceOnUse"><stop stop-color="#f39740" offset="0"/><stop stop-color="#c73ba1" offset="1"/></linearGradient><path d="m137.1 62.8h1.1c0.4 0 0.4 0 0.4-0.3v-4h-1.3c-0.1 0-0.2 0.1-0.2 0.2-0.1 0.3-0.2 0.6-0.2 0.9v3c0 0.1 0.1 0.2 0.2 0.2z" fill="url(#d)"/><linearGradient id="e" x1="126.4" x2="142.53" y1="220.98" y2="246.78" gradientTransform="matrix(1,0,0,-1,0,294.29)" gradientUnits="userSpaceOnUse"><stop stop-color="#f39740" offset="0"/><stop stop-color="#c73ba1" offset="1"/></linearGradient><path d="m138.6 52.2c-0.3 1.1-0.6 2.2-0.8 3.3h0.8z" fill="url(#e)"/></g><path d="m327.32 245.47c0-1.3 0-2.7-0.1-4 0-1.2-0.1-4.6-0.1-11.4 0-5.7 0-72.5 0.1-163.9 0-14 0.1-27.5 0-40.9 0-5.9-1.4-7.2-7.6-7.2-8.2-0.1-16.3-0.1-24.5 0-11.5 0.3-10.4-2.2-10.7 11.1 0 2.9 1.1 4.1 4.1 4.1 5.7-0.1 11.5 0 17.2 0 6.6 0 6.7 0.1 6.7 6.7v26.3c-0.1 94.4-0.2 162.7 0 166.7 0 0.5 0.2 2.7-1.2 4-1.2 1.1-2.9 1.1-3.9 1-6.2 0.1-17.4 0.1-18 0.1-2.4 0-4.1 0.2-4.1 3.8s0 5.1 0.1 7.5 1.2 3.5 3.7 3.5 6.1 0.1 8.7 0c7.4 0 14.9 0.1 22.3 0 3.2-0.1 4.9-0.3 5.9-1.3 2-1.9 1.3-2.9 1.4-6.1z" fill="#f38d40"/></svg>
