<svg version="1.1" xmlns="http://www.w3.org/2000/svg" viewBox="0 0 1000 1000"><path d="M419.5,288.9c0.3-37.4,30.9-67.6,68.4-67.3c37.5,0.3,67.6,30.9,67.3,68.3c-0.3,37.4-30.9,67.6-68.4,67.3c-37-0.3-67-30.2-67.3-67.3V288.9z"/><path d="M568.9,693.7h-12.5V471.3c0-30.8-25-55.8-55.8-55.8h-55.8v0.4h-15.4c-23.3,0-42.1,18.9-42.1,42.1c0,23.3,18.9,42.1,42.1,42.1h15.4v193.6h-12.7c-24.2,0-43.7,19.6-43.7,43.8c0,24.2,19.6,43.8,43.7,43.8h136.8c24.2,0,43.7-19.6,43.7-43.8C612.7,713.3,593.1,693.7,568.9,693.7z"/><path d="M500,10C229.4,10,10,229.4,10,500c0,270.6,219.4,490,490,490c270.6,0,490-219.4,490-490C990,229.4,770.6,10,500,10z M500,885c-212.6,0-385-172.4-385-385c0-212.6,172.4-385,385-385s385,172.4,385,385C885,712.6,712.6,885,500,885z"/></svg>
