{% load i18n %}
<svg xmlns="http://www.w3.org/2000/svg" viewBox="0 0 300 300"><title>{% trans "Just Escape logo with no text: an escape room door" %}</title><path d="M181.11 149.86v128.56c0 5.93-2.53 8.18-8.27 6.71-9.3-2.38-18.86-3.09-28.27-4.79-21.11-3.83-42.28-7.3-63.42-10.96-2.81-.49-5.57-1.33-8.4-1.72-3.19-.45-4.39-2.35-4.53-5.27-.07-1.43-.09-2.86-.09-4.3 0-71.38-.07-142.75.08-214.13.03-12.56-.42-11.22 12.63-13.45 8.68-1.49 17.32-3.28 26.02-4.62 11.99-1.85 23.95-3.95 35.94-5.82 9.55-1.5 19.11-3.34 28.63-5.18 1.12-.22 2.26-.33 3.4-.39 5.57-.3 6.19.2 6.19 5.94.03 43.14.02 86.28.02 129.42h.07zm-12.59-1c-.65998-2.47-.40998-5.9-3.09-8.38-2.29-2.12-4.96-2.63-7.38-.78-5.06 3.87-5.39 14.25-.86 18.83 2.83 2.86 6.29 2.64 8.75-.54 1.93-2.49 2.17-5.49 2.58-9.13z"/><path d="M231.84 259.91c.04-1.34 0-2.69-.05-4.04-.04-1.15-.06-4.56-.1-11.37-.03-5.74.01-72.48.12-163.86 0-14.02.07-27.48-.03-40.95-.05-5.93-1.42-7.16-7.56-7.22-8.17-.07-16.34-.14-24.5.01-11.53.27-10.41-2.19-10.66 11.09-.03 2.93 1.11 4.13 4.07 4.06 5.73-.12 11.46-.03 17.2-.03 6.61.01 6.67.06 6.68 6.71.01 8.72 0 17.45 0 26.32-.12 94.39-.16 162.66.03 166.71.03.53.18 2.69-1.17 4-1.17 1.14-2.91 1.08-3.94 1.05-6.25.07-17.43.07-17.98.07h.07-.1c-2.39 0-4.11.19-4.11 3.77 0 3.59.02 5.09.15 7.45s1.2 3.47 3.7 3.53 6.09.14 8.69 0c7.44 0 14.89.09 22.33-.04 3.16-.05 4.94-.31 5.94-1.33 1.78-1.78 1.12-2.72 1.22-5.93z"/></svg>
