{% load i18n %}
<svg xmlns="http://www.w3.org/2000/svg" viewBox="0 0 530.4 196.3"><title>{% trans "Just Escape Lille logo" %}</title><path fill="#f8f9fa" d="M414.6 116.1H404c-4.3 0-4.3 0-5.3 4.2l-6.9 30.5c-.3 1.5-1 2-2.5 1.9-3.7-.1-7.4 0-11.4 0 .5-2.4 1-4.6 1.5-6.8 5.8-25.5 11.7-51.1 17.6-76.6.5-2.3 1.3-4.5 2.3-6.6 2.8-6 7.4-9.8 14.1-10.2 5.4-.4 10.9-.5 16.3-.1 7.8.6 10.7 6 9.6 13.1-.9 6-2.4 11.9-3.8 17.9-5.1 22.4-10.3 44.9-15.4 67.3-.1.6-.3 1.2-.5 1.9h-13.3c2.8-12.2 5.5-24.2 8.3-36.5zm2.9-12.6c.2-.8.4-1.3.5-1.9 1.7-7.5 3.5-15 5.2-22.5.7-3.2 1.5-6.3 2.2-9.5.6-3.1-.8-4.9-4-5-1.7-.1-3.4 0-5.1 0-2.5.1-4.3 1.4-5.3 3.7-.4.9-.7 1.8-.9 2.8-2.1 9.1-4.2 18.2-6.3 27.2-.4 1.7-.7 3.3-1.1 5.1 5.1.1 9.9.1 14.8.1zM449 116.5c-2.8 12.2-5.5 24.2-8.2 36.1h-13.4c.8-3.8 1.6-7.4 2.5-11l19.8-86.8c.1-.3.2-.6.2-.9.1-1.4.8-1.8 2.2-1.8 4.7.1 9.5 0 14.2 0 3.9 0 7.8-.1 11.6.3 7 .8 10 5.5 9.3 12.3-.4 3.7-1.3 7.3-2.1 10.9-1.8 8-3.6 15.9-5.5 23.9-.8 3.4-2 6.6-4 9.4-3.8 5.2-9.1 7.3-15.3 7.5-3.6.1-7.3.1-11.3.1zm3.1-12.8c.4.1.6.3.8.3 2.3 0 4.7.1 7 0 3.6 0 5.5-1.4 6.5-4.9.5-1.9.9-3.9 1.4-5.9 1.8-7.9 3.7-15.8 5.4-23.7.7-3-.8-4.8-3.9-4.9-2.1-.1-4.3 0-6.4-.1-1.4-.1-2 .4-2.4 1.9-2.4 10.6-4.9 21.2-7.3 31.8-.4 1.9-.7 3.7-1.1 5.5zM303.8 129.1c-.5 2.2-1 4-1.4 5.9-.7 3.3.4 4.9 3.8 5.4.5.1 1 .1 1.6.1 4.9.1 6.9-1.4 8-6.1 1.4-5.7 2.6-11.4 4-17 .5-2 0-3.6-1.7-4.7-4.4-2.9-8.7-5.9-13.1-8.8l-2.9-2c-2.8-2-3.8-4.7-3.3-8a188 188 0 0 1 2.1-10.3c1.1-5.1 2.2-10.1 3.6-15.1.7-2.5 1.6-5 2.8-7.2 2.8-5 7.1-8.2 12.9-8.6 5.1-.4 10.3-.5 15.3 0 7 .6 10 5.4 9.3 12.1-.5 4.6-1.7 9-2.7 13.5-.1.5-.8 1.2-1.2 1.2-4 .1-7.9 0-11.9 0-.1 0-.2-.1-.5-.4.6-2.5 1.2-5.2 1.7-7.8.2-1.1.4-2.2.4-3.3 0-1.8-1-2.9-2.9-3.1-1.7-.1-3.5-.2-5.2 0-2.6.3-4.2 2.1-4.9 4.5-.8 2.7-1.4 5.5-2 8.3-.8 3.4-1.5 6.8-2.3 10.2-.4 1.6 0 3 1.4 3.9 1.8 1.3 3.7 2.6 5.6 3.9 3.3 2.2 6.6 4.3 10 6.4 3.9 2.4 5.1 5.8 4 10.2-1.9 8.3-3.8 16.6-5.7 24.8-.4 1.6-.9 3.1-1.6 4.6-3.2 7.3-9 10.9-16.8 11.1-3.4.1-6.9.1-10.3 0-1.8-.1-3.6-.4-5.3-1-4.1-1.5-5.7-4.8-6.1-8.9-.3-4.3.8-8.4 1.8-12.5.1-.4.7-1.1 1.1-1.1 4-.2 8-.2 12.4-.2zM388.6 80.6h-13.2c.1-.6.1-1.1.2-1.6.6-2.8 1.3-5.6 1.9-8.3.2-.8.3-1.7.3-2.5 0-2-1-3.3-3-3.4-1.9-.2-3.9-.3-5.8 0-2.7.4-4 2.5-4.7 4.9-.7 2.6-1.2 5.2-1.8 7.8-4.4 18.9-8.8 37.9-13.1 56.8-.1.3-.2.6-.2.9-.6 3.4.6 4.9 4 5.1 1.2.1 2.3 0 3.5 0 3.1-.1 5-1.9 5.9-4.8.5-1.7.9-3.4 1.3-5.1.2-.8.5-1.4 1.5-1.4h11.3c.2 0 .5.1.9.3-1.3 5.4-2.1 10.9-5.3 15.6-3.4 5.1-8.3 7.5-14.3 7.7-4 .2-7.9.1-11.9 0-1.1 0-2.2-.2-3.3-.5-4.8-1.1-7.7-4.5-7.8-9.4 0-2.6.3-5.3.9-7.9 4.9-21.8 10-43.6 15-65.4.3-1.3.7-2.6 1.1-3.9 2.6-7.8 7.8-12.7 16.2-13.3 4.9-.3 9.9-.2 14.8.2 5.8.6 8.9 4.4 8.9 10.1 0 1.7-.1 3.4-.4 5-1 4.5-2 8.7-2.9 13.1zM38.3 60H50c0 .7.1 1.2.1 1.8l-1.8 33c-.4 8.6-.8 17.1-1.3 25.7l-.6 11.7c0 1 0 2 .2 2.9.4 1.9 1.6 3 3.5 3.1 2.1.1 4.3.1 6.4 0 2.2-.1 3.7-1.5 4-4 .4-3.6.6-7.2.8-10.9.6-12 1.3-24.1 1.9-36.1l.9-18.5c.1-2.8.3-5.7.5-8.6h11.5c0 2.6.1 5.1 0 7.6-.3 6.4-.7 12.7-1 19l-1.5 27.6c-.3 5.9-.5 11.8-.9 17.7-.2 2.8-.7 5.7-1.5 8.4-1.8 5.6-6.3 8.7-12.2 8.9-4.2.1-8.3.1-12.5 0-5.9-.1-9.9-3.4-11.4-9.1-1-3.6-.7-7.3-.5-11 .3-6.5.7-13 1-19.4.5-9.1 1-18.1 1.4-27.2l.9-19.2c.2-1.2.3-2.2.4-3.4zM274.6 94.8h16.9c0 .6.1.9 0 1.2-.7 3.2-1.5 6.4-2.1 9.7-.2 1.2-.8 1.5-2 1.5h-15.7c-2.6 11.1-5.1 22-7.7 33.3h19.4c-.1.8-.1 1.3-.2 1.8-.7 3-1.4 6.1-2 9.1-.2.9-.4 1.4-1.5 1.4-10.4 0-20.9-.1-31.3-.1-.1 0-.1-.1-.4-.2.1-.8.3-1.6.5-2.5 7.2-31.7 14.5-63.4 21.7-95.1l.3-1.1c.1-1.2.8-1.6 2-1.6 3.6.1 7.1 0 10.7 0h20.5c-.1.7-.1 1.2-.1 1.6-.7 3-1.4 6.1-2 9.1-.3 1.4-.9 1.8-2.2 1.8-5.1-.1-10.1 0-15.2 0-2.6 0-2.6 0-3.2 2.4-2 8.5-4 17-5.9 25.6-.3.5-.3 1.1-.5 2.1zM490.8 140.4H510c0 .6.1 1 0 1.4-.7 3.2-1.5 6.3-2.1 9.5-.2 1-.5 1.5-1.6 1.5h-30.6c-.3 0-.6-.1-1.1-.2.8-3.7 1.6-7.3 2.4-10.8L496.8 55l.3-1.1c.1-1.2.7-1.7 1.9-1.6H530.4c-.2 1-.3 1.6-.4 2.3-.6 2.7-1.2 5.4-1.8 8.2-.5 2-.5 2-2.6 2h-15.2c-2.3 0-2.3 0-2.8 2.2l-6 25.9c-.1.5-.2 1-.3 1.9h16.9c0 .8.1 1.2 0 1.7-.7 3-1.4 6.1-2 9.1-.3 1.3-.8 1.8-2.2 1.8-4.5-.1-9.1 0-13.6-.1-1.5 0-2.1.4-2.5 2-2.2 9.8-4.5 19.6-6.8 29.4-.1.3-.2.9-.3 1.7zM119.1 84h-11.6v-5.5c0-1.2.2-2.3.1-3.5-.1-2.6-1.5-3.9-4.1-4.1-5.9-.4-7.5 1-7.8 6.9-.2 4.3-.3 8.7-.6 13-.1 2 .5 3.5 2.3 4.6 3.5 2 6.9 4 10.4 6.1 2 1.2 4 2.4 6 3.7 2.5 1.7 3.8 4 3.7 7.1-.4 8.1-.6 16.2-1.3 24.3-.7 8.2-5.9 12.7-14.1 12.7h-8.2c-7.5-.1-11.9-4-12.6-11.5-.3-2.7 0-5.4 0-8.2 0-.9.3-1.5 1.4-1.5h9.7c.2 0 .5.2.8.3-.1 1.6-.2 3.1-.2 4.6-.1 3.6 1.3 5.1 5 5.1 5.3.1 6.4-.9 6.7-6.2.3-4.6.5-9.2.8-13.8.2-2.3-.6-3.8-2.6-5-4.3-2.5-8.3-5.3-12.7-7.5-5.3-2.7-7.5-6.7-7-12.6.5-6.7.7-13.5 1.2-20.2.7-8.4 5.8-13 14.2-13.1 3.8 0 7.6-.2 11.3.3 5.6.8 8.7 4.2 9.5 9.8.7 4.8.1 9.4-.3 14.2zM124.3 60h34.3c-.1 3.6-.3 7.1-.4 10.9h-7.4c-4.1.1-3.8-.8-4 4-.4 8.9-1 17.9-1.4 26.8l-.9 17.5c-.5 9.7-1 19.3-1.6 29 0 .3-.1.5-.2.9H131c1.4-26 2.7-51.9 4.1-78.1h-10.8V60zM0 149.2v-9.8c0-.9.6-1.2 1.4-1.2h5.8c3.7 0 5.5-1.7 5.8-5.3.3-3.7.5-7.5.7-11.3.6-11.4 1.1-22.8 1.7-34.2.4-8.6.9-17.2 1.4-25.8 0-.5.1-.9.2-1.5h11.6c0 1.7.1 3.4 0 5.1-.3 6.1-.7 12.2-1 18.3-.6 12-1.3 24-1.9 35.9-.3 5.2-.5 10.5-.8 15.7-.1 1.2-.2 2.5-.5 3.7-1.5 6.7-6 10.3-12.9 10.4-3.8.1-7.7 0-11.5 0z"/><path fill="#f8f9fa" d="M246.7 5.7c0-1 0-2.1-.1-3.1-.3-2.1-.8-2.7-2.9-2.5-2.9.2-5.8.7-8.7 1.1-21.4 3.6-42.7 7.3-64 10.9-5.5.9-6 1.4-6 7v160.4c.2 2.4 1.1 3.4 3.4 3.8 12.6 2.2 25.3 4.5 37.9 6.7 11.6 2 23.3 4 34.9 6.1 3.4.6 5.1-.5 5.5-4 .1-.4.1-.9.1-1.4V97.5c0-30.6 0-61.2-.1-91.8zM235.6 104c-1.8 2.1-4.3 2.2-6.2.2-1.5-1.5-2.2-3.7-2.2-6.7 0-1.8.4-3.7 1.6-5.4 2-2.8 5.2-2.8 7.2 0 2.1 3 1.9 9.1-.4 11.9z"/><path fill="#f8f9fa" d="M256.2 24.1h13c2.9 0 3.3.4 3.3 3.2v19.1c0 .8.1 1.6.2 2.6h10.7v-9.8-21.6c0-3.2-.9-4.4-3.9-4.5-8.2-.1-16.3-.1-24.5-.1h-.2c-1.4.1-2.1.8-2.2 2.3-.1 1.7-.2 3.4-.2 5.1 0 2.9.8 3.7 3.8 3.7z"/><path fill="#f8f9fa" d="M283.4 158.1c0-.7-.1-1.4-.1-2.2h-10.5c-.1.9-.1 1.5-.1 2.2v9.5c0 4.1-.4 4.5-4.6 4.6-4.1 0-8.2.1-12.2.2-2.1 0-2.7.6-2.7 2.6v4.9c.1 2.4.9 3.1 3.3 3.1H279.4c3-.2 4.2-1.2 4.2-4.3-.3-6.9-.2-13.7-.2-20.6z"/><path fill="#f8f9fa" d="M274.2 137.4h7c2.2 0 2.2 0 2.2-2.1v-23c0-.6-.1-1.2-.1-2.1H275c-.4 0-1 .6-1.2 1-.5 1.9-1.1 3.9-1.2 5.9-.2 6.2 0 12.5-.1 18.7 0 1.2.5 1.7 1.7 1.6z"/><path fill="#f8f9fa" d="M283.3 70.8c-.1 0-.2 0-.3-.1-1.6 6.9-3.2 13.9-4.8 21h5.1V70.8z"/></svg>
