{% load i18n %}
<svg viewBox="0 0 95 95" xmlns="http://www.w3.org/2000/svg"><title>{% trans "The angled head of Marmitron, the Digimiam's chef robot" %}</title><path d="m49.286 86.85c-4.5 3.7-4.7 4.3-13.2 1.8s-8.8-2.1-10.4-8.6c-2.8-11.5 4.6-3.6 13.1-1.1s19.1 0.8 10.5 7.9z" fill="#f38d40"/><path d="m48.286 45.55c-9.3-2.7-16.1 3.2-21.4 15.3-4.8 10.9 6.8 14.3 12.2 15.9 6.4 1.9 16.1 4.1 18.8-5.2 3.7-12.7-0.3-23.3-9.6-26zm-8.3 28.8a8.702 8.702 0 1 1 4.9-16.7 8.702 8.702 0 1 1-4.9 16.7z" fill="#f38d40"/><path d="m41.786 67.55c-0.1 0-0.2-0.1-0.4-0.1-0.1 0.1-0.2 0.3-0.2 0.4-0.3 0.9 0.3 1.8 1.1 2.1 0.9 0.3 1.8-0.3 2.1-1.1 0.2-0.7-0.1-1.5-0.7-1.9-0.1 0.6-1 0.9-1.9 0.6z" fill="#f8f9fa"/><path d="m44.186 59.95c-3.3-1-6.8 0.9-7.8 4.3-1 3.3 0.9 6.8 4.3 7.8 3.3 1 6.8-0.9 7.8-4.3 0.9-3.3-1-6.8-4.3-7.8zm0.3 8.9c-0.3 0.9-1.2 1.4-2.1 1.1s-1.4-1.2-1.1-2.1c0-0.2 0.1-0.3 0.2-0.4 0.1 0.1 0.2 0.1 0.4 0.1 0.9 0.3 1.8 0 2-0.6 0.5 0.4 0.8 1.2 0.6 1.9z" fill="#cb4299"/><path d="m58.086 57.35-24-5.9c-0.8-0.2-1.3-1-1.1-1.8l1.5-6.2c0.2-0.8 1-1.3 1.8-1.1l24 5.9c0.8 0.2 1.3 1 1.1 1.8l-1.5 6.2c-0.1 0.8-1 1.3-1.8 1.1z" fill="#f8f9fa"/><path d="m70.286 13.75c-0.8-0.2-1.7-0.3-2.5-0.3a10.46 10.46 0 0 0-18.9-4.1c-0.8-0.5-1.7-0.9-2.7-1.1-5.3-1.4-10.7 1.6-12.4 6.6 11.7-6 36.7 1.7 41.9 15.7 1-1.2 1.7-2.6 2.1-4.1 1.5-5.6-1.9-11.3-7.5-12.7z" fill="#e6e7e8"/><path d="m76.786 28.45a10.41 10.41 0 0 0-10-13 10.46 10.46 0 0 0-18.9-4.1c-0.8-0.5-1.7-0.9-2.7-1.1-5.6-1.4-11.3 1.9-12.7 7.5-1.3 5.1 1.4 10.4 6.2 12.3l-2.8 10.7 25.9 6.7 2.9-11.3c5.5 1 10.8-2.3 12.1-7.7z" fill="#f8f9fa"/></svg>
