<svg viewBox="0 0 269.292 269.292"><rect class="bg" width="269.292" height="269.292"/><circle cx="134.646" cy="134.646" r="113.386"/><path class="bg" d="M65.034,131.454v23.94h-45v-23.94H65.034z"/><path class="bg" d="M112.012,67.193v135.72h-26.1V90.593h-12.96v-23.4H112.012z"/><path class="bg" d="M132.71,114.354l-0.36-7.38c0-25.2,7.2-42.12,35.459-42.12c22.5,0,36.541,11.34,36.541,34.74 c0,13.86-4.86,24.84-11.16,36.9l-22.68,43.02h31.5v23.4H130.73l30.6-56.16c7.021-12.96,17.46-31.32,17.46-46.26 c0-7.02-2.16-16.74-10.8-16.74c-10.261,0-10.8,14.58-10.8,21.96l0.359,8.64H132.71z"/></svg>
