{% load i18n %}
<svg xmlns="http://www.w3.org/2000/svg" viewBox="0 0 126.6 127.2"><title>{% trans "Not recommended for children under the age of 16" %}</title><path class="st0" d="M63.2,0C26.4-0.3,1.5,30,0,56.3c7.2,0,14.4,0,21.6,0c0,5.3,0,9.9,0,15c-7.4,0-14.4,0-21.6,0 C1.3,95,23.7,127,62.5,127.2c35.4,0.2,64-28.1,64.1-63C126.8,28.6,98.7,0.3,63.2,0z M48.7,102.5c-4.6,0-9,0-14.2,0 c0-21.5,0-43,0-64.9c-3.1-0.2-5.1-0.3-7.4-0.4c0-4,0-7.9,0-12.7c3.5,0,7.1,0,10.7,0c3.5,0,7,0,10.9,0 C48.7,50.6,48.7,76.4,48.7,102.5z M101.2,91.1c-3.4,8.9-10.5,13.5-19.7,13.1s-16-5.5-18.8-14.5c-3.1-10.1-2.5-20.3,1.3-29.9 c4.4-11.1,9.8-21.9,14.9-32.7c0.5-1.1,2.1-2.2,3.3-2.3c3.9-0.3,7.9-0.1,12.7-0.1C89.6,35.3,84.7,45,79.4,55.4 c13.2-4.9,21.3-0.4,23.7,12.7C104.6,75.9,104,83.7,101.2,91.1z"/><path class="st0" d="M82.9,64.6c-1.8,0-4.5,1.9-5.2,3.6c-2.5,6.5-2.9,13.4-0.3,20c0.7,1.7,3.3,3.8,5,3.8c1.8,0,4.4-1.9,5.2-3.6 c1.4-3.1,1.6-6.7,2.3-9.8c-0.7-3.7-0.8-7.2-2-10.1C87.2,66.6,84.7,64.6,82.9,64.6z"/></svg>
