{% load i18n %}
<svg xmlns="http://www.w3.org/2000/svg" viewBox="0 0 1000 1000"><title>{% trans "An animator pointing something on a whiteboard with their finger in the background to a team of 3 persons in the foreground" %}</title><g transform="translate(0.000000,511.000000) scale(0.100000,-0.100000)"><path d="M1460.4,4989.1c-420.4-61.3-771.1-420.4-834.5-853.5c-27.5-202.8-27.5-4495.6,0-4679.4c69.7-433.1,412-775.3,845-845c86.6-12.7,826-21.1,2002.7-21.1H5337v338v338H3433.5c-2104.1,0-1994.3-6.3-2095.7,135.2l-46.5,65.5v2334.4v2334.4l46.5,65.5c103.5,145.8-179.6,135.2,3661.1,135.2c3840.7,0,3557.6,10.6,3661.1-135.2l46.5-65.5l6.3-2309c6.3-2558.3,12.7-2399.9-131-2503.4c-61.3-44.3-90.8-46.5-471.1-52.8L7703-736v-338v-335.9h344.3c420.4,0,572.5,23.3,771.1,116.2c289.4,137.3,500.7,422.5,553.5,750c29.6,188,29.6,4501.9,0,4689.9c-69.7,433.1-412,775.3-845,845C8355.8,5016.6,1646.3,5016.6,1460.4,4989.1z"/><path d="M6353.1,3626.5c-147.9-40.1-234.5-95.1-338-211.3c-152.1-173.2-196.5-424.6-118.3-663.3c52.8-160.6,230.3-338,390.8-390.8c262-86.6,511.3-31.7,699.2,156.3c266.2,266.2,266.2,667.6,0,933.8C6813.7,3624.4,6577.1,3689.9,6353.1,3626.5z"/><path d="M4303.9,1947c-141.5-27.5-245.1-105.6-287.3-217.6c-35.9-92.9-35.9-101.4,0-194.4c44.4-116.2,143.7-188,304.2-219.7c63.4-10.6,392.9-21.1,733.1-21.1H5675V-57.8v-1352h845h845l4.2,511.2l6.3,511.3l63.4,12.7c232.4,48.6,369.7,238.7,414.1,568.3c35.9,264.1,14.8,1208.4-29.6,1345.7c-46.5,143.7-175.3,287.3-310.6,344.3c-99.3,42.3-329.6,84.5-475.3,86.6h-63.4l-57-293.6c-31.7-160.6-92.9-405.6-139.4-542.9l-82.4-251.4l-14.8,211.3c-8.4,116.2-23.2,302.1-35.9,412c-19,194.4-19,204.9,33.8,304.2c82.4,160.6,82.4,160.6-158.4,160.6s-240.8,0-158.4-160.6c50.7-99.3,52.8-112,33.8-283.1c-12.7-99.3-27.5-283.1-35.9-411.9l-14.8-232.4l-82.4,251.4c-46.5,137.3-107.7,382.4-139.4,542.9l-57,293.6l-834.5-2.1C4772.9,1966,4354.6,1957.6,4303.9,1947z"/><path d="M1789.9-1781.7c-147.9-40.2-234.5-95.1-338-211.3c-211.3-240.8-209.1-629.5,6.3-868.3c409.8-456.3,1161.9-171.1,1161.9,437.3c0,185.9-61.3,329.6-196.5,466.9C2250.5-1783.8,2013.9-1718.3,1789.9-1781.7z"/><path d="M4853.2-1769c-190.1-40.1-386.6-204.9-473.2-399.3c-59.2-133.1-59.2-376.1,2.1-513.4c50.7-112,166.9-251.4,266.2-312.6c122.5-74,312.7-112,447.9-86.6c464.8,86.6,699.3,549.3,490.1,969.7C5461.6-1864.1,5136.3-1712,4853.2-1769z"/><path d="M7874.2-1781.7c-143.7-38-230.3-90.8-329.6-200.7c-120.4-133.1-164.8-255.6-164.8-441.5c0-128.9,10.6-181.7,57.1-278.9c135.2-285.2,456.3-443.6,750-367.6c276.7,71.8,456.3,259.8,509.1,536.6C8782.6-2073.2,8328.4-1654.9,7874.2-1781.7z"/><path d="M1204.8-3461.2c-188-23.3-333.8-93-431-204.9c-128.9-143.6-152.1-247.2-162.7-716.2L600.6-4790h1356.3h1356.3l-10.6,418.3c-10.6,473.2-29.6,555.6-162.7,707.7c-101.4,114.1-240.8,177.5-447.9,204.9C2508.2-3435.8,1388.6-3435.8,1204.8-3461.2z"/><path d="M4234.2-3461.2c-179.6-25.4-323.2-95.1-418.3-202.8c-133.1-152.1-152.1-234.5-162.7-707.7l-10.6-418.3h1356.3h1356.3l-10.6,407.7c-6.3,289.4-19,435.2-44.4,511.3c-69.7,223.9-268.3,369.7-551.4,411.9C5573.6-3433.7,4407.4-3435.8,4234.2-3461.2z"/><path d="M7276.3-3461.2c-179.6-25.4-323.2-95.1-418.3-202.8c-133.1-152.1-152.1-234.5-162.7-707.7l-10.6-418.3h1356.3h1358.4l-12.7,418.3c-10.6,466.9-29.6,553.5-154.2,697.1c-97.2,114.1-255.6,190.1-452.1,215.5C8590.3-3435.8,7445.3-3435.8,7276.3-3461.2z"/></g></svg>
