{% load i18n %}
<svg id="puppet-svg" class="animable" xmlns="http://www.w3.org/2000/svg" viewBox="0 0 186.5 271"><path fill="#F8F9FA" d="M163.7 245.4c0-1.3 0-2.7-.1-4 0-1.2-.1-4.6-.1-11.4 0-5.7 0-72.5.1-163.9 0-14 .1-27.5 0-40.9 0-5.9-1.4-7.2-7.6-7.2-8.2-.1-16.3-.1-24.5 0-11.5.3-10.4-2.2-10.7 11.1 0 2.9 1.1 4.1 4.1 4.1 5.7-.1 11.5 0 17.2 0 6.6 0 6.7.1 6.7 6.7v26.3c-.1 94.4-.2 162.7 0 166.7 0 .5.2 2.7-1.2 4-1.2 1.1-2.9 1.1-3.9 1-6.2.1-17.4.1-18 .1h0c-2.4 0-4.1.2-4.1 3.8 0 3.6 0 5.1.1 7.5s1.2 3.5 3.7 3.5 6.1.1 8.7 0c7.4 0 14.9.1 22.3 0 3.2-.1 4.9-.3 5.9-1.3 2-1.9 1.3-2.9 1.4-6.1z"/><g class="puppet-knife"><path fill="#F8F9FA" d="M181.4 159.3v-.2c-.5-2.1-.9-4.2-.4-6.2-1.8.4-2.3.6-4 1 1.1 2.3 2 4 2.6 5.4h1.8z"/><path fill="#CB4299" d="M182.1 162.7v-.2-.5-.2c0-.1 0-.3-.1-.4v-.2c0-.1-.1-.3-.1-.4v-.1c0-.1-.1-.3-.1-.4-.1-.4-.2-.7-.3-1 0-.1-.1-.1-.2-.1h-1.4s-.2 0-.2.2c1.4 3.1 1.9 4.4 2.3 5.7 0-.1 0-.2.1-.3 0-.1 0-.2.1-.3v-.1-.3-.2-.2-.1c-.1-.5-.1-.7-.1-.9z"/></g><path fill="#F38D40" d="M175.9 127c-.4-.1-.9-.2-1.3-.2l-31.8 1.1c2.1 2.3 3.7 5.2 4.4 8.4.2.8.3 1.5.3 2.3l22.8-.8 5.3 23.8c.6 2.6 3.1 4.2 5.7 3.6l1.3-.3c2.6-.6 4.2-3.1 3.6-5.7l-6.4-28.6c-.3-2-2-3.4-3.9-3.6z"/><path fill="#F38D40" d="M112.8 132.4l-32.5 8.4c-2.6.7-4.1 3.3-3.4 5.9l.3 1.1 1.9 27.6c.2 2.6 2.5 4.6 5.1 4.5l1.3-.1c2.6-.2 4.6-2.5 4.5-5.1l-1.7-24.6 22.8-5.9c-.1-.6-.2-1.3-.2-1.9-.4-3.6.4-7 1.9-9.9z"/><path fill="#F38D40" d="M127.4 159.1c-9.3-.9-16.1-6.1-16.5-15.2 0-.9-1-1-1.1-.1l-4.2 45.1c-.2 2.6 1.7 5 4.3 5.2l28.1 2.6c2.6.2 5-1.7 5.2-4.3l4.2-45.1c.1-.9-.6-1.3-.9-.8-1.9 8.9-9.8 13.5-19.1 12.6z"/><circle fill="#F38D40" cx="129.1" cy="141" r="16.3"/><path fill="#F8F9FA" d="M168.5 129.2h-.5c-.9 0-1.6-.7-1.6-1.6V73.9c0-.9.7-1.6 1.6-1.6h.5c.9 0 1.6.7 1.6 1.6v53.7c0 .8-.7 1.6-1.6 1.6z"/><path fill="#F8F9FA" d="M88.4 140.4h-1.2c-.7 0-1.3-.6-1.3-1.3V84.9c0-.7.6-1.3 1.3-1.3h1.2c.7 0 1.3.6 1.3 1.3V139c0 .8-.6 1.4-1.3 1.4z"/><g class="puppet-eyes"><path fill="#F8F9FA" d="M128.7 138.8h-.7c-.8 0-1.5-.7-1.5-1.5v-35.1c0-.8.7-1.5 1.5-1.5h.7c.8 0 1.5.7 1.5 1.5v35.1c0 .8-.7 1.5-1.5 1.5z"/><path fill="#CB4299" d="M125.9 154.4l-6.3-1c-.3 0-.5-.3-.4-.6l.5-3c.1-.3.4-.5.7-.3l5.9 3.2c.2.1.3.4.3.6l-.1.8c-.1.2-.4.3-.6.3z"/><path fill="#CB4299" d="M133.5 154.4l6.1-1.8c.3-.1.4-.4.3-.6l-.9-2.9c-.1-.3-.5-.4-.7-.2l-5.4 4c-.2.1-.3.4-.2.6l.2.8c.1 0 .4.2.6.1z"/></g><path fill="#F38D40" d="M180 68.9c-.2-2.5-2.3-4.4-4.8-4.2l-43.4 2.9-1.2-17.8c-.1-2-1.9-3.6-4-3.5l-6 .4c-2 .1-3.6 1.9-3.5 4l1.2 17.8-43.4 2.9c-2.5.2-4.4 2.3-4.2 4.8l.3 4.4c.2 2.5 2.3 4.4 4.8 4.2l43.4-2.9 1.2 17.7c.1 2 1.9 3.6 4 3.5l6-.4c2-.1 3.6-1.9 3.5-4L132.7 81l43.4-2.9c2.5-.2 4.4-2.3 4.2-4.8l-.3-4.4z"/><path class="puppet-door" fill="#3C3E3E" d="M97.3 126c-2.3-2.1-5-2.6-7.4-.8-5.1 3.9-5.4 14.2-.9 18.8 2.8 2.9 6.3 2.6 8.8-.5 1.9-2.5 2.2-5.5 2.6-9.1-.7-2.5-.4-5.9-3.1-8.4z"/><path fill="#F8F9FA" class="puppet-door" d="M112.9 135.4V6c0-5.7-.6-6.2-6.2-5.9-1.1.1-2.3.2-3.4.4-9.5 1.8-19.1 3.7-28.6 5.2-12 1.9-23.9 4-35.9 5.8-8.7 1.3-17.3 3.1-26 4.6C-.2 18.3.2 17 .2 29.6c-.3 71.2-.2 142.6-.2 214 0 1.4 0 2.9.1 4.3.1 2.9 1.3 4.8 4.5 5.3 2.8.4 5.6 1.2 8.4 1.7 21.1 3.7 42.3 7.1 63.4 11 9.4 1.7 19 2.4 28.3 4.8 5.7 1.5 8.3-.8 8.3-6.7 0-42.9 0-85.8-.1-128.6.1 0 0 0 0 0zM89.1 144c-4.5-4.6-4.2-15 .9-18.8 2.4-1.8 5.1-1.3 7.4.8 2.7 2.5 2.4 5.9 3.1 8.4-.4 3.6-.6 6.6-2.6 9.1-2.5 3.2-6 3.4-8.8.5z"/></svg>
