{% load i18n %}
<svg xmlns="http://www.w3.org/2000/svg" viewBox="0 0 186.5 271">
<title>{% trans "A new escape room" %}</title>
<path fill="#F8F9FA" d="M163.7 245.4c0-1.3 0-2.7-.1-4 0-1.2-.1-4.6-.1-11.4 0-5.7 0-72.5.1-163.9 0-14 .1-27.5 0-40.9 0-5.9-1.4-7.2-7.6-7.2-8.2-.1-16.3-.1-24.5 0-11.5.3-10.4-2.2-10.7 11.1 0 2.9 1.1 4.1 4.1 4.1 5.7-.1 11.5 0 17.2 0 6.6 0 6.7.1 6.7 6.7v26.3c-.1 94.4-.2 162.7 0 166.7 0 .5.2 2.7-1.2 4-1.2 1.1-2.9 1.1-3.9 1-6.2.1-17.4.1-18 .1h0c-2.4 0-4.1.2-4.1 3.8 0 3.6 0 5.1.1 7.5s1.2 3.5 3.7 3.5 6.1.1 8.7 0c7.4 0 14.9.1 22.3 0 3.2-.1 4.9-.3 5.9-1.3 2-1.9 1.3-2.9 1.4-6.1z"/>
<path class="puppet-door" fill="#3C3E3E" d="M97.3 126c-2.3-2.1-5-2.6-7.4-.8-5.1 3.9-5.4 14.2-.9 18.8 2.8 2.9 6.3 2.6 8.8-.5 1.9-2.5 2.2-5.5 2.6-9.1-.7-2.5-.4-5.9-3.1-8.4z"/>
<g>
	<path fill="#F38D40" d="M130.5,175.1l-6.8,23.4l-19.6-5.7l6.8-23.4L130.5,175.1z M115.1,155.6l6.7-23.2c0.8-2.8,1.7-4.9,2.6-6.3
		c0.9-1.4,1.8-2.5,2.8-3.1c1-0.7,2.5-1.5,4.7-2.4l16.1-6c1.9-0.8,3.2-1.7,3.9-2.7c0.7-1,1.4-2.7,2.2-5.3l5.7-19.8
		c1.6-5.6-0.2-9.2-5.6-10.8l-7.1-2.1c-5.1-1.5-8.5,0.6-10.1,6.2l-2.9,10l-18.4-5.3l3.3-11.5c4.6-15.8,14.2-21.5,28.9-17.2l15.8,4.6
		c14.6,4.2,19.6,14.2,15.1,30l-8.1,28c-0.8,2.8-1.7,4.9-2.6,6.3c-0.9,1.4-2,2.5-3.2,3.2c-1.3,0.7-2.8,1.5-4.7,2.2l-15.8,6.3
		c-1.9,0.7-3.2,1.6-3.9,2.5c-0.7,1-1.4,2.7-2.2,5.3l-4.8,16.5L115.1,155.6z"/>
</g>
<path fill="#F8F9FA" class="puppet-door" d="M112.9 135.4V6c0-5.7-.6-6.2-6.2-5.9-1.1.1-2.3.2-3.4.4-9.5 1.8-19.1 3.7-28.6 5.2-12 1.9-23.9 4-35.9 5.8-8.7 1.3-17.3 3.1-26 4.6C-.2 18.3.2 17 .2 29.6c-.3 71.2-.2 142.6-.2 214 0 1.4 0 2.9.1 4.3.1 2.9 1.3 4.8 4.5 5.3 2.8.4 5.6 1.2 8.4 1.7 21.1 3.7 42.3 7.1 63.4 11 9.4 1.7 19 2.4 28.3 4.8 5.7 1.5 8.3-.8 8.3-6.7 0-42.9 0-85.8-.1-128.6.1 0 0 0 0 0zM89.1 144c-4.5-4.6-4.2-15 .9-18.8 2.4-1.8 5.1-1.3 7.4.8 2.7 2.5 2.4 5.9 3.1 8.4-.4 3.6-.6 6.6-2.6 9.1-2.5 3.2-6 3.4-8.8.5z"/>
</svg>
