<svg version="1.1" viewBox="0 0 267.51 251.21" xmlns="http://www.w3.org/2000/svg">
 <g transform="translate(-146.9 -18.986)">
  <path d="m414.2 133.9c-2.1 7.4-7.7 12.2-13 17.2-7 6.7-13.9 13.5-20.9 20.2-0.7 0.6-1.4 1.9-2.3 1.3-0.8-0.5 0.2-1.5 0.5-2.2 5.4-13.6 10.8-27.2 16.3-40.9 0.8-2 1.7-3.8 3-5.5 4.8-6.2 11.9-5.3 15.1 1.9 0.5 1.1 0.4 2.4 1.3 3.3v4.7z" fill="#ee874b"/>
  <path d="m340.3 19c2.4 1.9 4.1 4.4 5.2 7.3 4.9 12.3 9.8 24.6 14.6 37 0.3 0.8 0.9 1.6 0.4 2.7-6.2-5.9-12.5-11.6-18.4-17.7-4.7-4.8-7-11-7.5-17.7-0.3-4.4 0.7-8.5 4.1-11.6h1.6z" fill="#ee884d"/>
  <path d="m222.8 19c4.9 4.6 4.8 10.4 3.5 16.2-1.3 5.6-4 10.6-8.3 14.6-5.1 4.8-10.2 9.7-15.4 14.6-0.6 0.5-1 1.2-2.2 1.2 4.8-12 9.5-23.8 14.2-35.6 1.6-4.1 3-8.2 6.6-11h1.6z" fill="#ee884d"/>
  <path d="m228.2 145.4c4.8 0.9 10-1.2 15.6-3.8 27.4-12.5 54.6-12.1 81.1 2.7 1.2 0.7 2.4 1 3.7 1h17.3c1.9 0 2.6 0.2 1.3 2.2-1.9 2.7-3.3 5.7-4.4 8.9-0.5 1.5-0.3 2.6 0.5 3.9 7 11.3 7.6 23 1 34.5-6.7 11.7-17.3 17.2-30.7 16.7-8.8-0.4-16.4-4.1-22.3-10.6-1.6-1.8-2.3-1.4-3.3 0.4-1.4 2.3-3 4.5-4.5 6.8-0.8 1.3-1.4 1.3-2.2 0-1.4-2.3-3.1-4.4-4.5-6.8-1.1-2-1.9-1.7-3.3-0.2-13.9 14.4-36.2 13.9-49.2-1-9.5-10.9-10.9-26.8-3.1-39 1.2-1.9 1.4-3.5 0.5-5.6-1.2-2.7-2.4-5.4-4.1-7.9-1.1-1.6-1.1-2.2 1.1-2.1 2.6 0 5.4-0.1 9.5-0.1zm113.7 33.1c0.1-14.7-11.6-26.6-26.3-26.7-14.6-0.1-26.7 11.8-26.7 26.3-0.1 14.6 11.6 26.5 26.1 26.7 15 0 26.9-11.5 26.9-26.3zm-66.1-0.3c0-14.6-11.8-26.5-26.4-26.5-14.7 0-26.5 11.8-26.6 26.4 0 14.6 11.8 26.5 26.4 26.5 14.7 0.1 26.6-11.8 26.6-26.4z" fill="#ee874b"/>
  <path d="m239.8 225.1c-3.9 0-7.8 0.1-11.7 0-11.4-0.2-22.9 1.1-34.2 0-6.5-0.6-11.5-4-13.6-10.7-1.9-6.3 1.8-11 8.4-10.9 2 0 4 0.5 5.8 1.3 14.8 6.3 29.5 12.6 44.3 18.9 0.4 0.2 0.7 0.4 1.1 0.6 0 0.2-0.1 0.5-0.1 0.8z" fill="#ee874c"/>
  <path d="m174.7 136.5c-5.7-13.2-11.5-26.4-17-39.7-2.5-5.9-2.1-11.9 2.1-17 2.4-3 5.7-4.8 9.7-3.8 4.1 1 5.7 4.5 6.2 8.3 0.8 5.6 0.2 11.1 0.1 16.7-0.2 10.3-0.2 20.6-0.3 30.9 0 1.6-0.2 3.1-0.3 4.7-0.2-0.1-0.4-0.1-0.5-0.1z" fill="#ee884c"/>
  <g fill="#ee874c">
   <path d="m385.8 136.4v-38.2c0-4.5-0.7-9.1 0.1-13.6 0.7-4.1 2.1-7.7 6.6-8.8 3.5-0.9 8.2 1.5 10.5 5.5 2.8 4.6 3.3 9.7 1.2 14.6-5.6 13.6-11.5 27.1-17.3 40.6-0.4 0-0.7 0-1.1-0.1z"/>
   <path d="m180.3 98.7c0-6.6 0.1-13.2 0-19.8-0.1-7.7-0.4-15.4-0.4-23 0-6.2 2.3-11.5 7.6-15 3.5-2.3 7.4-2.8 11.1-0.4 3 1.9 4.1 6 2.7 10.4-2.2 6.9-5.5 13.4-8.3 20.1-3.9 9.3-8 18.6-12 27.9-0.2-0.2-0.4-0.2-0.7-0.2z"/>
   <path d="m322 224.2c6-2.6 11.8-5.1 17.6-7.6 8.9-3.8 17.8-7.6 26.7-11.5 2.2-0.9 4.4-1.6 6.8-1.7 6.3-0.1 9.8 4.5 8.3 10.6-1.6 6.4-8 11.3-16.2 11.3-14.2 0-28.4-0.5-42.6-0.7-0.1 0-0.2-0.1-0.6-0.4z"/>
   <path d="m380.5 98.8c-3.9-8.9-7.7-17.9-11.6-26.8-2.5-5.8-5-11.5-7.4-17.3-0.6-1.4-1.1-2.8-1.4-4.2-0.9-3.8-0.7-7.5 2.7-9.9s7.2-1.9 10.6 0.1c5.4 3.1 8 8.2 8.1 14.1 0.3 14.6 0.1 29.3 0.1 44-0.3-0.1-0.7-0.1-1.1 0z"/>
  </g>
  <g fill="#ee874b">
   <path d="m155.7 174.5c0.2-3.9 1.3-7.1 4.6-8.9s6.4-0.7 9.4 1.1c2.3 1.5 4.1 3.5 6 5.5 9.4 9.6 18.8 19.2 28.2 28.8 0.7 0.7 1.4 1.4 1.9 2.1 0.2 0.3 0.4 0.9 0.2 1.2-0.2 0.5-0.7 0.2-1.1 0-12.9-5.2-25.8-10.2-38.6-15.6-6.2-2.6-10-7.5-10.6-14.2z"/>
   <path d="m354 203.8c3.3-3 6.7-5.8 9.8-9 8.4-8.4 16.6-17 24.9-25.4 0.9-0.9 1.8-1.7 2.8-2.4 3.9-2.7 7.7-3.1 10.5-1.1 3 2.1 4.6 6.8 3.6 10.8-1.4 5.7-5.1 9.8-10.4 12-13 5.3-26.1 10.4-39.2 15.6-0.4 0.1-0.8 0.2-1.2 0.2-0.3-0.1-0.5-0.4-0.8-0.7z"/>
   <path d="m183.3 173.2c-10.2-9.9-20.4-19.5-30.3-29.4-4.6-4.6-6.7-10.2-4.7-16.8 1.1-3.8 3.6-6.5 7.6-7.2 3.9-0.6 6.4 1.9 8.4 4.7 2.1 2.9 3 6.3 4.3 9.5 4.8 11.8 9.5 23.7 14.2 35.5 0.4 1.2 1 2.2 0.5 3.7z"/>
  </g>
  <path d="m257.3 108.8c0 4-0.1 8 0 12 0.1 2.4-1.3 2.1-2.8 2.1s-3 0.2-2.8-2.2c0.2-2.6 0-5.2 0.1-7.9 0.1-1.7-0.4-2.6-2.3-2.4-2.8 0.3-6.6-1.2-8.3 0.6-1.8 1.8-0.6 5.5-0.5 8.3s-0.5 3.9-3.5 3.7c-1.8-0.2-2.1-0.8-2.1-2.4 0.1-7.9 0.1-15.7 0-23.6 0-2.3 1-2.5 2.8-2.5s3.1 0 2.8 2.5c-0.2 2.2 0 4.5-0.1 6.8-0.1 1.7 0.3 2.6 2.3 2.4 2.8-0.3 6.5 1.2 8.3-0.6 1.8-1.6 0.6-5.3 0.5-8-0.1-2.4 0.7-3.1 3.1-3.1 2.5 0 2.6 1 2.6 3-0.1 3.8-0.1 7.5-0.1 11.3z" fill="#ef8a50"/>
  <path d="m275.8 94.4c8.3 0 13.4 5.5 13.5 14.3 0 9.1-5 14.7-13.4 14.7s-13.3-5.3-13.3-14.6c0-9.1 4.8-14.4 13.2-14.4zm7.8 14.4c0-2-0.3-4-1.1-5.9-2-4.5-7.5-6-11.1-3-2.7 2.3-3.3 5.5-3.4 8.8-0.2 6.2 3 10.5 7.8 10.5 4.7 0.1 7.8-4.1 7.8-10.4z" fill="#ef894e"/>
  <path d="m224.9 258c0 3.4-0.1 6.4 0 9.3 0.1 1.9-0.6 2.3-2.4 2.3s-2.2-0.6-2.2-2.3c0.1-8.5 0-16.9 0.1-25.4 0-1.2-1-3.1 1.7-3.2 2.3-0.1 2.7 0.9 2.1 3.5 1-1 1.4-1.4 1.9-1.7 5-4.4 12-2.2 14.1 4.4 2.4 7.6-1.3 15.2-7.6 16-2.9 0.3-5.3-0.8-7.7-2.9zm11.2-8.6c0-4.6-1.9-7.3-5.1-7.5s-5.7 2.3-6.1 6.2c-0.5 5.1 1.4 8.7 4.8 9.1 4.1 0.5 6.4-2.4 6.4-7.8z" fill="#ef8c53"/>
  <path d="m281 257.5c-7.2 6.9-14.9 2.3-16-5.8-0.5-4 0.1-7.7 2.8-10.8 2.7-3 7.2-3.4 10.8-1.1 0.6 0.4 1.1 1.3 1.7 0.8 0.4-0.3 0.3-1.3 0.3-1.9 0-2.8 0.1-5.6 0-8.4-0.1-1.8 1-1.9 2.3-1.9 1.4 0 2.2 0.2 2.2 2-0.1 9.1 0 18.2-0.1 27.3 0 1.2 0.9 3-1.8 3.2-2.3 0-2.1-1.6-2.2-3.4zm-11.6-8c0.2 1.1 0.2 2.2 0.5 3.3 0.7 2.7 2.2 4.5 5.3 4.4 3-0.1 4.5-1.9 5.2-4.6 0.6-2.4 0.6-4.8-0.3-7.2-0.9-2.3-2.5-3.7-5.1-3.7-2.5 0-4 1.4-4.9 3.6-0.4 1.4-0.7 2.8-0.7 4.2z" fill="#ef8b51"/>
  <path d="m332.8 108.8c0-3.9 0.1-7.9 0-11.8 0-1.6 0.4-2.2 2-2.1 4.4 0.1 8.9 0.1 13.3 0 1.3 0 1.9 0.4 1.9 1.8 0 1.3-0.1 2.2-1.8 2.2-2.6-0.1-5.2 0.1-7.8-0.1-1.7-0.1-2.3 0.4-2.3 2.2 0 5.3-0.1 5.3 5.3 5.3 1.2 0 2.4 0.1 3.7 0 1.4-0.1 2.3 0.1 2.3 1.9 0 1.7-0.6 2.3-2.3 2.2-2.3-0.1-4.7 0-7.1 0-1.3 0-1.8 0.4-1.9 1.8-0.3 6.7-0.4 6.7 6.1 6.7 1.2 0 2.4 0.1 3.7 0 1.5-0.1 2.4 0.1 2.4 2 0 2-0.8 2.3-2.5 2.2-4.2-0.1-8.4-0.1-12.6 0-1.9 0.1-2.6-0.4-2.5-2.4 0.2-4.1 0.1-8 0.1-11.9z" fill="#ee874c"/>
  <path d="m223.2 94.4c1.9-0.2 3.9 0.4 5.9 1 1.1 0.3 1.5 0.8 1.5 2-0.1 2-0.5 2.6-2.7 2-9.2-2.8-16 3.2-14.1 12.2 1.3 5.9 7.1 8.9 13.5 7.1 0.9-0.3 2.5-2.3 3.3 0.2 0.6 2 0.2 3.5-2.3 3.8-1.8 0.2-3.6 0.7-5.4 0.7-9.1-0.1-15.1-5.9-15-14.6 0-8.5 6.1-14.4 15.3-14.4z" fill="#ef8a50"/>
  <path d="m320.6 94.4c1.8-0.1 3.7 0.4 5.7 0.9 1.1 0.3 1.7 0.8 1.6 2.2-0.1 2.2-0.8 2.5-2.8 1.8-8.2-2.6-14.6 2.1-14.2 10.3 0.3 7.2 6.6 11.1 14.2 8.9 2.5-0.8 3.4 0 3.1 2.5-0.1 0.6-0.3 1-0.8 1.2-8 3-19.3 0.8-21.7-9.2-2.6-10.2 4.1-18.6 14.9-18.6z" fill="#ef8a50"/>
  <path d="m339.1 249.7c0-7 4.3-11.5 10.8-11.4 6.6 0.1 10.7 4.5 10.7 11.6 0 6.9-4.4 11.4-11 11.3-6.3-0.1-10.5-4.6-10.5-11.5zm4.7-0.7c-0.1 6 3.2 9.5 7.5 8.4 2.8-0.7 4.6-3.2 4.8-6.7 0.3-4.3-1.2-7.6-4-8.6s-5.7 0-7.2 2.6c-0.9 1.5-1.1 3.1-1.1 4.3z" fill="#ef8b51"/>
  <path d="m262 252.6v5.8c0 1 0.4 2.3-1.3 2.2-1.1-0.1-2.7 0.7-2.8-1.6-0.1-1.8-1-0.5-1.4-0.2-1.9 1.6-4.2 2.1-6.6 1.9-3.1-0.4-5.2-2-5.9-5.1s0.6-5.5 3.3-7.1c2.5-1.4 5.3-1.7 8.1-1.6 2.6 0.2 2.5-1.1 1.8-2.9-1.1-2.4-4-3-7.6-2-0.9 0.3-2.2 2-3 0.4-0.9-1.9 0.3-3.1 2.4-3.7 8.3-2.3 12.9 1 13.1 9.6 0 1.5-0.1 2.9-0.1 4.3zm-6.9-2.5c-2.9 0.1-4.3 0.4-5.4 1.1-1.2 0.9-1.8 2.1-1.5 3.6 0.3 1.4 1.2 2.3 2.6 2.6 3 0.7 5.9-1.1 6.6-4 0.6-2.3 0.6-4.1-2.3-3.3z" fill="#ef8c53"/>
  <path d="m182.2 249c0-1.1-0.1-2.3 0-3.4 0.2-2.3-0.1-3.8-3-3.3-1.5 0.2-1.3-1-1.4-1.9 0-1.1 0.4-1.8 1.5-1.5 3.1 0.6 3.3-1.2 3-3.4-0.3-2.5 1.8-2.7 3.3-2.8 2-0.2 1 1.7 0.9 2.5-0.3 2.9 0.6 4.2 3.7 3.7 1.3-0.2 1.6 0.6 1.6 1.7s-0.3 2-1.6 1.8c-3.4-0.6-3.8 1.2-3.6 4 0.2 2.5 0 5.1 0.1 7.6 0 2.5 0.9 4.1 3.8 3.5 0.7-0.2 1.5-0.3 1.4 0.8-0.1 0.9 0.6 2.1-0.9 2.7-4 1.5-8-0.7-8.5-5-0.4-2.5-0.3-4.8-0.3-7-0.1 0-0.1 0 0 0z" fill="#ef8b51"/>
  <path d="m330 238.5c1.3 0.2 2.6 0.4 3.9 0.6 2 0.4 1.2 1.9 1 2.9-0.2 1.4-1.2 0.3-1.8 0.2-1.2-0.1-2.4-0.4-3.6-0.5-1.4-0.1-2.9 0-3.3 1.8-0.4 1.6 0.8 2.4 2 3 1.3 0.7 2.7 1.3 4 2 2.5 1.4 4.4 3.4 3.9 6.5s-2.7 4.6-5.5 5.3c-2.5 0.6-5 0.4-7.5-0.2-2.1-0.5-1.8-2-1.5-3.3 0.4-1.6 1.5-0.1 2.2-0.1 1.6 0.2 3.2 0.9 4.9 0.4 1.3-0.4 2.5-0.9 2.7-2.4 0.2-1.4-0.6-2.3-1.8-2.9-1.3-0.7-2.6-1.3-3.9-2.1-2.4-1.4-4.5-3.1-3.9-6.4 0.5-2.8 3.2-4.6 6.7-4.8h1.6c-0.1 0.1-0.1 0-0.1 0z" fill="#ef8b51"/>
  <path d="m299.9 108.9c0 3.9-0.1 7.9 0 11.8 0.1 2.3-1.1 2.3-2.7 2.3-1.4-0.1-2.9 0.4-2.9-2.1 0.1-8 0.1-16.1 0-24.1 0-2.4 1.3-2.2 2.8-2.2 1.6 0 2.9 0 2.8 2.3-0.1 4 0 8 0 12z" fill="#ef894e"/>
  <path d="m298.7 260.5c-3.5-7.1-6.7-13.7-9.9-20.3-0.3-0.5-0.6-1.4 0.4-1.3 1.5 0.1 3.4-1 4.4 1.2 1.4 3.1 2.8 6.2 4.3 9.2 0.2 0.5 0.6 1.3 1 1.4 0.7 0.1 0.8-0.8 1.1-1.3 1.4-2.9 2.8-5.8 4.3-8.7 0.4-0.8 0.6-1.8 1.6-1.8 1.1-0.1 2.6-0.3 3.3 0.3 0.7 0.5-0.4 1.7-0.8 2.5-3.3 6.1-6.4 12.2-9.7 18.8z" fill="#ef8c53"/>
  <path d="m323.1 79.9c0-0.8-0.1-1.6 0-2.4 0.2-2-1-5 0.5-5.7 2.4-1.1 5.5-0.8 8.2-0.1 3.3 0.9 4.1 5 1.4 7.2-1 0.8-1.2 1.1-0.4 2.3 1 1.5 1.6 3.3 2.1 5 0.2 0.6 1.5 1.6-0.1 2-1 0.2-2.3 0.5-2.9-1-0.5-1.3-1-2.6-1.4-3.9-0.5-1.4-1.4-2.3-2.9-2.1-1.9 0.2-1 1.7-1.1 2.7-0.1 0.9-0.1 1.9 0 2.9 0.1 1.1-0.4 1.6-1.5 1.6s-1.9-0.2-1.8-1.6c0-2.2-0.1-4.6-0.1-6.9zm3.2-3.7c0.2 1.1-0.7 2.9 1.8 2.7 1.8-0.1 3.4-0.4 3.4-2.7s-1.6-2.5-3.4-2.7c-2.2-0.2-1.8 1.4-1.8 2.7z" fill="#ef8d54"/>
  <path d="m250.6 88.5c-1.4 0.3-2-0.6-2.2-1.9-0.3-1.8-1.4-2.3-3.2-2.2-2.6 0.2-5.7-0.9-6.4 3.3-0.2 1.4-1.8 1-2.7 0.7-1.2-0.4-0.2-1.3 0.1-1.9 1.6-4.4 3.4-8.8 5-13.2 0.5-1.5 1.4-1.9 2.9-1.9s2.2 0.5 2.7 1.9c1.6 4.5 3.4 9 5.2 13.4 0.4 1.3 0.2 1.9-1.4 1.8zm-6.7-14.5c-0.8 2.2-1.3 3.6-1.9 4.9-1.2 2.4-0.7 3.3 2.1 3.1 2-0.1 2.7-0.4 1.8-2.5-0.7-1.5-1.2-3.1-2-5.5z" fill="#ef8d54"/>
  <path d="m200.2 241.8c1.6-2 3-3.2 4.9-3.3 1.1-0.1 2.7-0.8 2.7 1.2 0 1.4 0.3 2.9-2.2 2.8-3-0.1-4.5 1.9-5 4.7-0.6 3.6-0.3 7.3-0.3 11 0 1.7-0.4 2.5-2.3 2.5s-2.1-0.8-2.1-2.3c0.1-5.6 0-11.2 0.1-16.8 0-1-0.9-2.6 1.2-2.9 2-0.2 3.3 0.1 3 3.1z" fill="#ef894e"/>
  <path d="m222.3 79.8v-2.1c0-6.7 0.9-7.4 7.8-6.2 1.7 0.3 3.1 1.2 3.7 3 0.5 1.8 0.1 3.6-1.5 4.6-1.3 0.8-0.9 1.2-0.3 2.3 0.9 1.6 1.5 3.3 2.1 5 0.2 0.6 1.1 1.6-0.2 1.9-0.9 0.2-2.2 0.5-2.7-0.8-0.6-1.5-1.1-2.9-1.6-4.4-0.5-1.3-1.6-1.8-2.9-1.7-1.7 0.2-0.9 1.6-1 2.5-0.1 0.8 0 1.6 0 2.3 0 1.2 0.1 2.3-1.7 2.2-1.6 0-1.5-1-1.5-2.1-0.2-2.2-0.2-4.4-0.2-6.5zm3.1-3.6c0.2 1.2-0.6 2.9 1.8 2.7 1.8-0.2 3.4-0.6 3.3-2.7 0-2.1-1.7-2.5-3.5-2.6-2.2-0.2-1.4 1.4-1.6 2.6z" fill="#ef8c53"/>
  <path d="m369 241.7c1.7-1.8 3-3 4.9-3.2 1.1-0.1 2.7-0.7 2.8 1.2 0.1 1.3 0.4 2.9-2.1 2.8-3.4-0.1-5.2 2.3-5.3 6.4-0.1 3-0.1 6.1 0 9.1 0 1.5 0 2.6-2.1 2.6-2.3 0-2.2-1.1-2.2-2.8v-16.5c0-1.1-0.7-2.7 1.6-2.8 1.8 0.1 2.7 0.7 2.4 3.2z" fill="#ef8a50"/>
  <g fill="#ef8d54">
   <path d="m270.1 79.6v-0.5c0-8.6 0.2-8.8 9-7.7 0.7 0.1 1.4 0.1 1.4 1.1 0 1.1-0.7 1.3-1.5 1.3-1 0-1.9 0.1-2.9 0-1.7-0.2-2.7-0.2-2.8 2.2 0 2.4 1.1 2.3 2.9 2.5 1.3 0.1 3.9-1.2 3.9 1.1 0 2.6-2.6 1.1-4 1.2-1.9 0.1-2.8 0.4-2.7 2.6 0 2.2 0.8 2.8 2.8 2.6 1.1-0.1 2.3 0 3.4 0 0.9 0 1.3 0.4 1.3 1.3s-0.4 1.3-1.3 1.3h-8.1c-1.3 0-1.3-0.8-1.3-1.8-0.1-2.4-0.1-4.8-0.1-7.2z"/>
   <path d="m260.3 85.3c1.4-4.4 2.8-8.3 3.9-12.3 0.5-1.8 1.7-2 3-1.6 1.5 0.5 0.2 1.6 0 2.3-1.4 4.3-3 8.6-4.5 12.9-0.5 1.4-1.3 1.9-2.7 1.9s-2.2-0.4-2.7-1.9c-1.4-4.4-3-8.7-4.4-13.1-0.2-0.6-1.3-1.7 0.2-2.1 1.1-0.2 2.4-0.6 3 1.2 1.1 3.7 2.3 7.3 3.5 11 0.1 0.4 0.3 0.8 0.7 1.7z"/>
   <path d="m342.3 88.9c-0.7-0.1-1.5-0.2-2.4-0.4-1.2-0.2-2.3-0.7-1.7-2.2s1.5-0.3 2.3-0.2c0.9 0 1.9 0.2 2.8 0.1 1.1 0 1.8-0.7 2-1.7s-0.3-1.7-1.1-2.2c-1-0.6-1.9-1.2-2.9-1.7-2.4-1.3-3.9-3.1-3.1-5.9 0.7-2.6 3-3.5 5.5-3.6 1.2 0 2.4 0.3 3.6 0.5 0.9 0.2 0.9 0.9 0.8 1.7s-0.7 0.8-1.4 0.7c-1.9-0.3-4.5-1.3-5.2 1.2s2.3 2.6 3.8 3.5c2.2 1.5 4.3 3 3.4 6-0.8 3.2-3.3 4.1-6.4 4.2z"/>
  </g>
  <path d="m309.3 79.7v-0.5c0-8.7 0-8.7 8.8-7.8 0.9 0.1 1.6 0.1 1.5 1.3-0.1 1-0.8 1-1.5 1h-2.9c-1.6-0.1-3-0.2-2.9 2.3 0 2.4 1.1 2.3 2.8 2.5 1.4 0.1 4-1.4 3.9 1.2 0 2.2-2.5 1-3.8 1-2 0-2.9 0.3-2.9 2.7 0 2.3 0.7 2.9 2.8 2.7 1.1-0.1 2.3 0 3.4 0 0.9 0 1.2 0.4 1.2 1.3 0 0.8-0.5 1-1.2 1h-8.1c-1.4 0-1.2-1-1.2-1.8 0.1-2.3 0.1-4.6 0.1-6.9z" fill="#ef8b51"/>
  <path d="m310.6 51.3c2.6-1.6 5.2-1.9 7.3 0.6 1.9 2.3 1.8 4.9 0.1 7.3-1.7 2.3-4.1 2.8-6.8 1.7-1.5-0.6-2.5-1.9-3-3.5-0.9-3.2-0.9-6.4 0.4-9.5 1.4-3.4 5.1-5.1 8.7-4.1 0.7 0.2 1.4 0.5 1.2 1.4s-0.9 0.5-1.5 0.5c-4.8-0.2-6.2 0.9-6.7 5.2v0.6c0-0.1 0.2-0.2 0.3-0.2zm6.2 4.5c0-2.2-0.9-3.8-3.2-3.8-2.5 0-3.3 1.6-3.3 3.8 0 2.1 1.1 3.6 3.3 3.5 2.4 0.1 3.2-1.5 3.2-3.5z" fill="#ef9058"/>
  <path d="m265.9 52.4c-0.1-2 0.2-4 1.1-5.8 1-2 2.6-3.1 4.8-3 2.2 0 3.9 1.1 4.7 3.1 1.6 3.9 1.6 7.8-0.1 11.7-0.9 2-2.6 3-4.8 3.1-2.2 0-3.8-1.2-4.7-3.1-0.9-2-1.1-4-1-6zm2.5-0.1c0 1.8 0 3.7 0.8 5.4 0.5 1.1 1.3 1.8 2.6 1.8 1.2 0 2-0.7 2.4-1.7 1.3-3.6 1.4-7.1-0.1-10.7-0.4-1-1.3-1.7-2.4-1.7-1.3 0-2.1 0.8-2.6 1.9-0.7 1.5-0.7 3.2-0.7 5z" fill="#ef9058"/>
  <path d="m316.2 249.9c0 2.9-0.1 5.8 0 8.6 0.1 1.8-0.5 2.2-2.2 2.2-1.6 0-2.1-0.4-2.1-2.1 0.1-5.9 0.1-11.9 0-17.8 0-1.6 0.5-2.1 2.1-2.1 1.7 0 2.3 0.4 2.2 2.2-0.1 3 0 6 0 9z" fill="#ef894e"/>
  <path d="m216.1 249.8c0 3-0.1 6.1 0 9.1 0.1 1.7-0.9 1.7-2.2 1.7-1.2 0-2.2 0.1-2.2-1.7 0.1-6.2 0.1-12.4 0-18.6 0-1.8 1-1.7 2.2-1.7s2.3-0.1 2.2 1.7c-0.1 3.2 0 6.4 0 9.5z" fill="#ee884d"/>
  <path d="m212.1 81c0-1.2-0.1-2.5 0-3.7 0.2-2.4-0.2-4-3.1-3.5-0.8 0.1-1.3-0.1-1.4-1.1 0-1.1 0.5-1.4 1.4-1.4h9.4c0.8 0 1.6 0 1.6 1.2 0 1.1-0.6 1.5-1.5 1.3-3.1-0.6-3.3 1.2-3.2 3.6 0.2 2.8 0.1 5.6 0 8.4 0 1.1 0.5 2.5-1.6 2.6-2 0-1.7-1.2-1.7-2.4 0.1-1.7 0.1-3.4 0.1-5z" fill="#ef8c53"/>
  <path d="m284.3 79.8v-6.8c0-1.3 0.5-1.7 1.7-1.7 1.3 0 1.7 0.5 1.6 1.7 0 3.4 0.1 6.8-0.1 10.2-0.1 2.1 0.7 2.6 2.7 2.7 1.4 0 4.2-1.4 4.1 1.3-0.1 2.4-2.7 1.1-4.1 1.1-5.9 0.2-5.9 0.1-5.9-6v-2.5z" fill="#ef8d54"/>
  <path d="m249.4 61c-1.4-0.4-3.9 1-4.8-0.7-1-1.9 1.8-2.8 2.8-4.3 1.2-1.6 2.6-3.1 3.8-4.7 1-1.4 1.8-3 0.5-4.6-1.1-1.5-2.8-1.2-4.3-0.9-0.7 0.1-1.7 1.3-2.2-0.1-0.5-1.6 1-1.7 1.9-1.8 2.4-0.5 4.9-0.8 6.7 1.6 1.7 2.4 0.9 4.7-0.6 6.8-1.3 1.9-2.9 3.5-4.3 5.2-0.3 0.3-0.7 0.7-0.6 1 0.1 0.7 0.8 0.4 1.3 0.4 1.1 0 2.3-0.1 3.4 0 0.8 0.1 2.2-0.5 2.2 1-0.1 1.5-1.5 0.8-2.3 0.9-1.1 0.3-2.2 0.2-3.5 0.2z" fill="#ef9058"/>
  <path d="m296.8 79.8v-6.8c0-1.3 0.5-1.6 1.7-1.6s1.5 0.5 1.5 1.6c0 3.5 0.1 7-0.1 10.4-0.1 2 0.4 2.7 2.5 2.7 1.4 0 4.2-1.3 4.1 1.2 0 2.2-2.7 1-4.1 1-5.7 0.2-5.7 0.1-5.7-5.6 0.1-1 0.1-2 0.1-2.9z" fill="#ef8a50"/>
  <path d="m294.6 52.5v6.8c0 0.8 0.1 1.6-1.1 1.7-1.4 0.1-1.3-0.9-1.3-1.7v-10.4c0-1.4-0.1-2.5-1.7-0.9-0.5 0.5-1.1 0.9-1.8 0.1-0.7-0.9 0-1.3 0.6-1.6 1.5-0.9 2.6-3.3 4.6-2.4 1.6 0.8 0.5 3 0.6 4.6 0.2 1.2 0.1 2.5 0.1 3.8z" fill="#ef9058"/>
  <g fill="#ef8d54">
   <path d="m214.2 235c-1.8-0.2-2.8-1-2.9-2.7 0-1.5 0.9-2.4 2.4-2.5 1.6-0.1 2.5 0.8 2.7 2.3 0.2 1.7-0.9 2.5-2.2 2.9z"/>
   <path d="m316.7 232.3c-0.2 1.5-1 2.6-2.6 2.7-1.5 0-2.5-1-2.6-2.4-0.1-1.6 0.9-2.6 2.5-2.7s2.4 0.9 2.7 2.4z"/>
   <path d="m354.6 71.4c0.6 0.1 1.7 0 1.2 1-0.9 1.7-0.2 4.4-2.8 5.1-0.8 0.2-1.2-0.2-1.1-1.2 0.3-3.1 1.3-4.9 2.7-4.9z"/>
  </g>
  <path d="m385.3 244.4h-2c0.4-2.1-0.8-2.7-2.6-2.5-0.3-0.8-0.3-1.7 0-2.5 0.8 0 1.4-0.2 1.9-0.8 0.3 0 0.7-0.1 1-0.1-0.1 1.5 1.6 1.8 1.9 3 0.1 0.5 0.2 1 0.3 1.6-0.5-0.5-1-1.1-1.5-1.6-0.5 1.1 1 1.8 1 2.9z" fill="#ef9058"/>
  <path d="m359.9 98.6c-0.6-0.3-0.6-0.9-0.5-1.4 0.2-1-0.8-2.7 0.9-2.7 1.4 0 1.4 2 2.4 2.9 0.1 0.1-0.1 1.1-0.9 0.9-0.6-0.1-1.7 0-1.9 0.3z" fill="#ef9058"/>
  <g fill="#f3ac82">
   <path d="m355.4 152.3c-3.3-1.6-3.6-4.4-0.6-6.6 0.1 0.1 0.2 0.1 0.2 0.2v0.9 3.8l0.6 1.5z"/>
   <path d="m382.7 238.5c-0.5 0.6-1.2 0.9-1.9 0.8 1.4-2.9 3.2-3.4 5.8-1.9l-0.3 0.3c-1.2 0-2.7-1.2-3.6 0.8z"/>
   <path d="m380.8 241.8c1.8-0.1 2.9 0.4 2.6 2.5-1.4-0.3-2.3-1.1-2.6-2.5z"/>
   <path d="m385.3 244.4c0-1.1-1.5-1.8-0.8-3.1 0.5 0.5 1 1.1 1.5 1.6h0.9l0.3 0.3c-0.4 0.7-1 1.2-1.9 1.2z"/>
   <path d="m359.7 146.4c1.1 1.4 1.9 2.8 0.1 4.3l-0.1-0.1v-4.2z"/>
   <path d="m387.7 238.5c1.1 1.4 1.2 2.7 0 4.1l-0.3-0.3v-3.4c0-0.2 0.2-0.3 0.3-0.4z"/>
   <path d="m354.8 145.8c1.3-0.8 2.7-1.3 4 0-0.1 0.1-0.1 0.2-0.2 0.3h-3.6c-0.1-0.2-0.2-0.3-0.2-0.3z"/>
   <path d="m358.2 152.3c-0.9 0.7-1.9 0.7-2.8 0l0.1-0.2c0.8 0 1.6 0 2.5-0.1 0.1 0.2 0.1 0.2 0.2 0.3z"/>
   <path d="m359.8 150.7c0 0.7-0.3 1.1-1 1.1l-0.1-0.1 1-1z"/>
   <path d="m358.8 145.7c0.3 0.2 0.6 0.5 0.9 0.7-0.5 0.2-0.9 0-1.1-0.4 0-0.1 0.1-0.2 0.2-0.3z"/>
   <path d="m387.2 237.9c0.2 0.2 0.3 0.4 0.5 0.6-0.1 0.1-0.2 0.2-0.4 0.3-0.2-0.2-0.3-0.4-0.5-0.5 0.2-0.1 0.3-0.2 0.4-0.4z"/>
   <path d="m358.8 151.8-0.5 0.5c-0.1-0.1-0.1-0.2-0.2-0.3 0.2-0.1 0.4-0.3 0.6-0.4-0.1 0.1 0.1 0.2 0.1 0.2z"/>
   <path d="m387.7 242.6c-0.2 0.2-0.3 0.4-0.5 0.6l-0.3-0.3c0.1-0.2 0.3-0.4 0.4-0.6 0.1 0.1 0.3 0.2 0.4 0.3z"/>
   <path d="m386.6 237.4c0.2 0.2 0.4 0.3 0.6 0.5-0.1 0.1-0.2 0.2-0.3 0.4-0.2-0.2-0.4-0.3-0.5-0.5 0-0.1 0.1-0.2 0.2-0.4z"/>
  </g>
  <path d="m310.6 51.3c-0.1 0.1-0.3 0.2-0.4 0.2v-0.6c0.2 0.1 0.3 0.2 0.4 0.4z" fill="#fefdfc"/>
  <path d="m386.3 237.8c0.2 0.2 0.4 0.3 0.5 0.5 0.2 0.2 0.3 0.4 0.5 0.5v3.4c-0.2 0.2-0.3 0.4-0.5 0.6h-0.9c-0.1-0.5-0.2-1-0.3-1.6 0.5-1.7 0.9-3.4-1.9-3-0.3 0-0.7 0.1-1 0.1 0.9-1.8 2.4-0.6 3.6-0.5z" fill="#fdfaf8"/>
  <path d="m383.7 238.3c2.8-0.4 2.4 1.3 1.9 3-0.2-1.2-1.9-1.5-1.9-3z" fill="#f3ac82"/>
  <path d="m358.6 151.7c-0.2 0.1-0.4 0.3-0.6 0.4-0.8 0-1.6 0-2.5 0.1l-0.6-1.5c0.9 0.6 1.6-2.4 2.7-0.2 0.1 0.2 0.3-0.3 0.5-0.6 1.3-3.5-1.3-2.9-3.1-3v-0.9h3.6c0.3 0.4 0.6 0.6 1.1 0.4v4.2l-1.1 1.1z" fill="#fdfaf8"/>
  <path d="m355 146.9c1.9 0.1 4.4-0.5 3.1 3-0.1 0.3-0.3 0.8-0.5 0.6-1.1-2.2-1.8 0.8-2.7 0.2 0.1-1.3 0.1-2.6 0.1-3.8z" fill="#ef9058"/>
  <g fill="#ef894e">
   <path d="m315.4 161.5c9 0 16.4 7.3 16.5 16.2 0 9-7.3 16.4-16.3 16.5-9.1 0.1-16.7-7.4-16.6-16.4 0-9 7.4-16.3 16.4-16.3zm-0.1 27c6.1 0.1 10.9-4.6 10.9-10.6 0-5.9-4.7-10.6-10.6-10.8-5.9-0.1-10.9 4.8-10.9 10.8-0.1 5.8 4.6 10.6 10.6 10.6z"/>
   <path d="m249 194.2c-9 0-16.4-7.2-16.5-16.2s7.4-16.5 16.5-16.5 16.3 7.3 16.3 16.3c0 9.1-7.3 16.4-16.3 16.4zm-0.2-5.7c6 0 10.7-4.5 10.8-10.4 0.1-6-4.5-10.9-10.6-11-5.8-0.2-10.9 4.8-10.9 10.8 0 5.8 4.7 10.6 10.7 10.6z"/>
   <path d="m315.3 172.5c3.1 0 5.5 2.4 5.5 5.4 0 2.9-2.4 5.3-5.3 5.3-3 0-5.6-2.5-5.5-5.4 0-2.9 2.4-5.3 5.3-5.3z"/>
   <path d="m248.9 183.2c-3 0-5.5-2.5-5.5-5.5 0.1-3 2.6-5.4 5.6-5.3s5.3 2.4 5.3 5.3c0.1 3.2-2.3 5.6-5.4 5.5z"/>
  </g>
 </g>
</svg>
