<svg xmlns="http://www.w3.org/2000/svg" version="1" viewBox="0 0 268 251"><path fill="#ee874b" d="M267 115c-2 7-7 12-13 17l-21 20-2 2c-1-1 0-2 1-3l16-40 3-6c5-6 12-5 15 2l1 3v5z"/><path fill="#ee884d" d="M193 0c3 2 5 4 6 7l14 37 1 3-19-18c-5-4-7-11-7-17-1-5 0-9 4-12h1zM76 0c5 5 5 10 3 16-1 6-4 11-8 15L56 45l-2 2 14-36c1-4 3-8 6-11h2z"/><path fill="#ee874b" d="M81 126c5 1 10-1 16-3 27-13 54-12 81 2l4 1h17c2 0 3 1 1 3l-4 8v4c7 12 8 23 1 35-6 12-17 17-30 17-9-1-17-5-23-11-1-2-2-1-3 0l-4 7h-3l-4-7c-1-2-2-1-3 0a33 33 0 0 1-50-1c-9-11-11-27-3-39 1-2 2-3 1-5l-4-8c-1-2-1-3 1-2l9-1zm114 34c0-15-12-27-26-27a27 27 0 1 0 26 27zm-66-1a26 26 0 1 0-53 0 26 26 0 0 0 53 0z"/><path fill="#ee874c" d="M93 206H47c-6 0-11-4-14-11-2-6 2-11 9-10l6 1 44 19h1v1z"/><path fill="#ee884c" d="M28 118L11 78c-3-6-2-12 2-17 2-3 6-5 10-4s5 5 6 8v48l-1 5z"/><g fill="#ee874c"><path d="M239 117V79 66c1-4 2-8 7-9 3-1 8 1 10 5 3 5 3 10 1 15l-17 41-1-1zM33 80V60 37c0-6 2-12 8-15 3-2 7-3 11 0 3 1 4 6 2 10l-8 20-12 28h-1zM175 205l18-7 26-12 7-2c6 0 10 5 8 11-1 6-7 11-16 11h-42l-1-1zM234 80l-12-27-7-17-2-4c-1-4-1-8 3-10s7-2 10 0c6 3 8 8 9 14v44h-1z"/></g><g fill="#ee874b"><path d="M9 156c0-4 1-8 4-9s7-1 10 1l6 5 28 29 2 2v1h-1l-39-15c-6-3-10-8-10-14zM207 185l10-9 25-26 3-2c4-3 7-3 10-1s5 7 4 11c-2 5-5 10-11 12l-39 15-1 1-1-1zM36 154L6 125c-4-5-7-10-5-17 2-4 4-6 8-7s6 2 8 5c3 2 3 6 5 9l14 36v3z"/></g><path fill="#ef8a50" d="M110 90v12c1 2-1 2-2 2s-3 0-3-2v-8c0-2 0-3-2-3-3 1-7-1-9 1v8c0 2-1 4-4 4l-2-2V78c0-2 1-2 3-2s3 0 3 2v7c0 2 0 2 2 2h8c2-2 1-6 1-8 0-3 1-3 3-3s3 1 3 3l-1 11z"/><path fill="#ef894e" d="M129 75c8 0 13 6 13 15s-5 14-13 14-13-5-13-14 5-15 13-15zm8 15l-1-6c-2-5-8-6-11-3-3 2-4 5-4 9 0 6 3 10 8 10s8-4 8-10z"/><path fill="#ef8c53" d="M78 239v9c0 2-1 3-2 3s-3-1-3-3v-25c0-1-1-3 2-3 2 0 3 1 2 3l2-1c5-5 12-3 14 4 3 8-1 15-7 16-3 0-6-1-8-3zm11-9c0-4-2-7-5-7s-6 2-6 6c0 5 1 9 5 9 4 1 6-2 6-8z"/><path fill="#ef8b51" d="M134 239c-7 6-15 2-16-6 0-4 0-8 3-11s7-3 11-1l1 1 1-2v-9l2-2 2 2v28c0 1 1 3-2 3-2 0-2-2-2-3zm-12-8l1 3c1 3 2 4 5 4s5-2 6-4l-1-8c-1-2-2-3-5-3-2 0-4 1-5 3l-1 5z"/><path fill="#ee874c" d="M186 90V78c0-2 0-2 2-2h13c2 0 2 0 2 2 0 1 0 2-2 2h-7c-2 0-3 0-3 2 0 5 0 5 5 5h4c2 0 2 0 2 2 1 2 0 3-2 2h-7l-2 2c0 7 0 7 6 7h4c1 0 2 0 2 2s0 2-2 2h-13c-2 0-2 0-2-2V90z"/><path fill="#ef8a50" d="M76 75l6 1 2 2c0 2-1 3-3 2-9-2-16 4-14 13 1 6 7 9 13 7 1-1 3-3 4 0 0 2 0 3-3 4h-5c-9 0-15-5-15-14s6-15 15-15zM174 75l5 1c2 1 2 1 2 3s-1 2-3 1c-8-2-14 2-14 11 0 7 7 11 14 9 3-1 4 0 3 2l-1 1c-8 3-19 1-21-9-3-10 4-19 15-19z"/><path fill="#ef8b51" d="M192 231c0-7 5-12 11-12 7 0 11 5 11 12s-5 11-11 11c-7 0-11-4-11-11zm5-1c0 6 3 10 7 8 3 0 5-3 5-6 1-5-1-8-4-9s-5 0-7 3l-1 4z"/><path fill="#ef8c53" d="M115 234v5l-1 3c-1 0-3 0-3-2s-1 0-1 0l-7 2c-3-1-5-2-6-5s1-6 3-7c3-2 6-2 8-2 3 0 3-1 2-3s-4-3-7-2c-1 0-3 2-3 0-1-1 0-3 2-3 8-3 13 1 13 9v5zm-7-3l-5 1-2 4c1 1 1 2 3 2 3 1 6-1 6-4 1-2 1-4-2-3z"/><path fill="#ef8b51" d="M35 230v-3c0-3 0-4-3-4-1 1-1-1-1-2l1-1c3 1 4-1 3-3 0-3 2-3 4-3s1 1 1 2c-1 3 0 4 3 4 2 0 2 1 2 2s0 2-2 1c-3 0-4 2-3 4v8c0 3 1 4 4 4h1c0 1 1 2-1 3-4 2-8-1-8-5l-1-7zM183 220h4c2 1 1 2 1 3h-5c-2 0-3 0-4 2l2 3 4 2c3 1 5 3 4 6s-3 5-5 5h-8c-2 0-2-2-1-3 0-2 1 0 2 0h5l2-2c1-2 0-3-1-3l-4-2c-3-2-5-3-4-7 0-2 3-4 7-4h1z"/><path fill="#ef894e" d="M153 90v12c0 2-1 2-3 2-1 0-3 0-3-2V78c0-3 2-2 3-2 2 0 3 0 3 2v12z"/><path fill="#ef8c53" d="M152 242l-10-21v-1c2 0 4-1 5 1a259 259 0 0 0 5 11l1-2 4-8 2-2h3v3l-10 19z"/><path fill="#ef8d54" d="M176 61v-2c0-2-1-5 1-6h8c3 1 4 5 1 7v2l2 5c0 1 2 2 0 2-1 0-2 1-3-1l-1-4-3-2c-2 0-1 2-1 3v3l-2 1-2-1v-7zm3-4c1 1 0 3 2 3s4 0 4-3-2-2-4-2c-2-1-2 1-2 2zM104 70c-2 0-2-1-3-2 0-2-1-3-3-3-2 1-5 0-6 4h-3v-1l5-14 3-2 3 2 5 14-1 2zm-7-15l-2 5c-1 2-1 3 2 3 2 0 3 0 2-2l-2-6z"/><path fill="#ef894e" d="M53 223c2-2 3-3 5-3 1-1 3-1 3 1 0 1 0 3-2 3-3-1-5 1-5 4l-1 11c0 2 0 3-2 3s-2-1-2-3v-16c0-1-1-3 1-3s4 0 3 3z"/><path fill="#ef8c53" d="M75 61v-2c0-7 1-8 8-6 2 0 3 1 4 3 0 1 0 3-2 4v2l2 5v2h-3l-1-5-3-2c-2 1-1 2-1 3v2c0 1 0 3-2 2-2 0-1-1-1-2l-1-6zm4-4c0 1-1 3 1 3s4-1 4-3-2-2-4-2c-2-1-1 1-2 2z"/><path fill="#ef8a50" d="M222 223c2-2 3-3 5-3 1-1 3-1 3 1 0 1 0 3-2 3-4-1-5 2-6 6v9c0 2 0 3-2 3s-2-1-2-3v-17c0-1-1-2 2-2 2 0 2 0 2 3z"/><g fill="#ef8d54"><path d="M123 61v-1c0-8 0-9 9-8l2 2-2 1h-3c-1 0-2 0-3 2 0 2 2 2 3 3 2 0 4-2 4 1 0 2-2 1-4 1s-3 0-2 2c0 3 0 3 2 3h4l1 1-1 2h-8c-2 0-2-1-2-2v-7zM113 66l4-12c1-2 2-2 3-2 2 1 1 2 0 3l-4 13c-1 1-1 2-3 2s-2-1-3-2l-4-13v-3c1 0 3 0 3 2l4 11v1zM195 70h-2c-1-1-2-1-2-3s2 0 3 0h2l2-1-1-3-3-1c-2-2-3-3-3-6 1-3 3-4 6-4l3 1 1 1-1 1c-2 0-5-1-5 1s2 3 3 4c3 1 5 3 4 6s-3 4-7 4z"/></g><path fill="#ef8b51" d="M162 61v-1c0-8 0-8 9-8l2 2-2 1h-3c-1 0-3 0-3 2s2 2 3 3c2 0 4-2 4 1 0 2-2 1-4 1s-3 0-3 2c0 3 1 3 3 3h4l1 1-1 1h-8l-2-1v-7z"/><path fill="#ef9058" d="M164 32c2-1 5-2 7 1 2 2 2 5 0 7-2 3-4 3-7 2l-3-4c-1-3-1-6 1-9 1-3 5-5 8-4l2 1-2 1c-5 0-6 1-7 5v1l1-1zm6 5c0-2-1-4-3-4-3 0-4 2-4 4s2 3 4 3 3-1 3-3zM119 33l1-5c1-2 3-3 5-3s4 1 5 3c1 4 1 8-1 11 0 2-2 3-4 4-3 0-4-2-5-4l-1-6zm2 0l1 6 3 2 2-2c2-4 2-7 0-11l-2-2c-2 0-2 1-3 2l-1 5z"/><path fill="#ef894e" d="M169 231v9c0 1 0 2-2 2s-2-1-2-2a528 528 0 0 0 2-20c2 0 2 0 2 2v9z"/><path fill="#ee884d" d="M69 231v9c0 2-1 2-2 2s-2 0-2-2v-19l2-1 2 1v10z"/><path fill="#ef8c53" d="M65 62v-4c0-2 0-4-3-3l-1-1 1-2h9c1 0 2 0 2 2l-1 1c-4-1-4 1-4 3v9c0 1 1 2-1 2s-2-1-2-2v-5z"/><path fill="#ef8d54" d="M137 61v-7l2-2 2 2v10c-1 2 0 3 2 3s4-1 4 1c0 3-2 1-4 1-6 1-6 0-6-6v-2z"/><path fill="#ef9058" d="M103 42c-2 0-4 1-5-1s2-2 3-4l3-5c1-1 2-3 1-4-1-2-3-1-5-1h-2c0-2 1-2 2-2 3-1 5-1 7 2 2 2 1 4-1 6l-4 6-1 1h5c1 0 2-1 2 1l-2 1h-3z"/><path fill="#ef8a50" d="M150 61v-7c0-1 0-2 2-2s1 1 1 2v10c0 2 0 3 3 3 1 0 4-1 4 1 0 3-3 1-5 1-5 1-5 0-5-5v-3z"/><path fill="#ef9058" d="M148 34v6l-1 2c-2 0-2-1-2-2V30c0-1 0-3-1-1h-2v-1c2-1 3-4 5-3s1 3 1 5v4z"/><g fill="#ef8d54"><path d="M67 216c-2 0-3-1-3-3 0-1 1-2 3-2l2 2c1 2 0 3-2 3zM170 213c0 2-1 3-3 3l-2-2c-1-2 0-3 2-3s2 1 3 2zM208 52l1 1c-1 2 0 5-3 6l-1-2c0-3 1-5 3-5z"/></g><path fill="#ef9058" d="M238 225h-2c1-2 0-2-2-2v-3h3l2 3v1l-2-1 1 2zM213 80l-1-2 1-2c2 0 2 2 3 2 0 1 0 2-1 1l-2 1z"/><g fill="#f3ac82"><path d="M208 133c-3-1-3-4 0-6v5l1 1zM236 220h-2c1-3 3-3 6-2l-1 1c-1 0-2-1-3 1zM234 223c2 0 3 0 3 2-2 0-3-1-3-2zM238 225v-3l1 2h1l-2 1zM213 127c1 2 2 3 0 5v-5zM241 220v4l-1-1v-3h1zM208 127h4-4zM211 133h-3 3zM213 132l-1 1 1-1zM212 127h1-1zM240 219l1 1h-1v-1zM212 133h-1 1z"/><path d="M241 224h-1v-1l1 1zM240 218v0z"/></g><path fill="#fefdfc" d="M164 32l-1 1v-1h1z"/><path fill="#fdfaf8" d="M239 219h1v5h-1v-2c0-1 1-3-2-3h-1 3z"/><path fill="#f3ac82" d="M237 219c3 0 2 2 2 3-1-1-2-1-2-3z"/><path fill="#fdfaf8" d="M212 133h-3l-1-1c1 0 2-3 3 0v-1c2-4-1-3-3-3v-1h5v5l-1 1z"/><path fill="#ef9058" d="M208 128c2 0 4-1 3 3v1c-1-3-2 0-3 0v-4z"/><g fill="#ef894e"><path d="M168 143c9 0 17 7 17 16s-7 16-16 16-17-7-17-16 7-16 16-16zm0 27c6 0 11-5 11-11s-4-11-10-11-11 5-11 11 4 11 10 11zM102 175c-9 0-16-7-16-16s7-16 16-16 16 7 16 16-7 16-16 16zm0-5c6 0 11-5 11-11s-5-11-11-11-11 5-11 11 5 11 11 11z"/><path d="M168 154c4 0 6 2 6 5s-2 5-5 5-6-2-6-5 2-5 5-5zM102 164c-3 0-5-2-5-5s2-6 5-6 5 3 5 6-2 5-5 5z"/></g></svg>