{% load i18n %}
<svg viewBox="0 0 640 512" xmlns="http://www.w3.org/2000/svg"><title>{% trans "Times 2 multiplier" %}</title><path d="m640 461.02v50.977h-192.38q3.125-28.906 18.75-54.688 15.625-25.977 61.719-68.75 37.109-34.57 45.508-46.875 11.328-16.992 11.328-33.594 0-18.359-9.9609-28.125-9.7656-9.9609-27.148-9.9609-17.188 0-27.344 10.352-10.156 10.352-11.719 34.375l-54.688-5.4688q4.8828-45.312 30.664-65.039 25.781-19.727 64.453-19.727 42.383 0 66.602 22.852 24.219 22.852 24.219 56.836 0 19.336-7.0312 36.914-6.8359 17.383-21.875 36.523-9.9609 12.695-35.938 36.523-25.977 23.828-33.008 31.641-6.8359 7.8125-11.133 15.234zm-422.66 50.977 74.805-106.84-71.68-100.59h66.992l36.719 57.031 38.672-57.031h64.453l-70.312 98.242 76.758 109.18h-67.383l-42.188-64.258-42.578 64.258z"/></svg>
