<svg xmlns="http://www.w3.org/2000/svg" viewBox="0 0 64 64"><path class="social-media-circle" d="M32,0C14.327,0,0,14.327,0,32c0,17.673,14.327,32,32,32s32-14.327,32-32C64,14.327,49.673,0,32,0z"/><g transform="translate(297.22034,0)"><path class="social-media-shape" d="M-275.388,13.311c2.075-1.631,6.062-2.098,7.703-1.779c1.643,0.316,2.501,1.235,2.511,2.353 l0.095,14.261c0.007,1.121-0.574,2.15-1.294,2.288c-0.723,0.136-1.787-0.53-2.372-1.483l-7.483-12.227 C-276.807,15.768-277.978,15.348-275.388,13.311L-275.388,13.311z M-277.872,40.429l7.534-2.666 c1.049-0.373,1.99-1.409,2.095-2.308c0.101-0.9-0.661-1.968-1.696-2.377l-7.958-3.156c-1.036-0.41-2.231,0.561-2.546,2.15 c0,0-0.19,5.533,0,6.679C-280.252,39.896-278.922,40.802-277.872,40.429L-277.872,40.429z M-264.732,41.761 c0.021-1.123-0.578-2.092-1.332-2.162c-0.756-0.07-1.955,0.574-2.67,1.43l-5.255,6.301c-0.715,0.856-0.36,2.867,0.683,3.248 l5.495,1.908c1.046,0.381,2.888-0.745,2.909-1.865L-264.732,41.761L-264.732,41.761z M-251.67,40.294l-6.589-1.894 c-1.068-0.307-2.281-0.278-2.692,0.07c-0.412,0.343-0.308,1.43,0.229,2.41l4.159,7.611c0.537,0.98,2.688,0.812,3.28-0.139 c0,0,2.507-3.697,2.967-5.084C-249.854,41.878-250.602,40.601-251.67,40.294L-251.67,40.294z M-250.065,29.593 c-0.297-0.963-2.357-3.801-3.473-4.768c-1.114-0.97-2.39-0.849-3.108,0.003l-4.246,5.059c-0.72,0.851-0.912,2.202-0.433,2.995 c0.479,0.794,1.759,1.243,2.844,1l7.345-1.362C-249.811,32.201-249.763,30.555-250.065,29.593L-250.065,29.593z"/></g></svg>
